<?xml version="1.0" encoding="utf-8"?>
<!-- Generator: Adobe Illustrator 23.0.1, SVG Export Plug-In . SVG Version: 6.00 Build 0)  -->
<svg version="1.1" id="OBJECTS" xmlns="http://www.w3.org/2000/svg" xmlns:xlink="http://www.w3.org/1999/xlink" x="0px" y="0px"
	 viewBox="0 0 266.6 266.8" style="enable-background:new 0 0 266.6 266.8;" xml:space="preserve">
<style type="text/css">
	.st0{fill:#3F250A;}
	.st1{fill:#FEFEFE;}
</style>
<g>
	<circle class="st0" cx="133.3" cy="133.4" r="124.7"/>
	<g>
		<path class="st1" d="M200.9,161.7c-15.5,5.5-29.9,3.2-43.3-6.2c-0.8-0.1-1.3-0.6-1.4-1.4c-1.8-1.9-1.7-3.7-0.2-6
			c1.9-3,2.3-5.2,2.2-8.8c-7.4,12.1-18.6,17.8-31.6,19.8c-18.5,2.8-34.6-1.8-45.1-16.3c-1.8-1.4-2.1-3.5-2.7-5.5
			c-0.1-0.1,0-0.2-0.2-0.3c0.1,0.3,0.2,0.7,0.3,1c0.7,2.1,1,4.2,1,6.4c0.8,4.8,4,8.2,7.2,11.7c-11.3,5.4-26.5-0.4-32.2-12.2
			c-7.8-16.2-3-33.7,12.1-43.5c5.4-3.5,11.4-5.9,18.1-7.1c-0.4,7-0.2,13.7,4.6,19.4c-0.4-2.1-0.9-4.2-1.1-6.3
			c-0.2-2.3-0.2-4.6,0.2-6.8c1.8-10.9,8.4-18,18.4-21.7c13.5-5,26.8-5,39.2,3.4c7.8,5.2,12.2,12.6,13,22.1c0.1,0.8,0.2,1.5,0.3,2.3
			c0.1,0.4,0.2,0.7,0.4,1.4c4.6-11.3,13.4-15.7,24.8-15.9c4.7-0.1,9.2,0.4,12.2,4.7c5,4.9,7.8,10.7,7.9,17.8c0,1.7-0.1,2.3-2.2,2.2
			c-4.1-0.2-8,0.7-11.7,2.6c-0.6,1.2,0,1.1,0.8,0.8c11.1-1,17.6,2.5,21.7,11.4c3.8,8.3,1.5,19.3-5.4,25.9c-1.1,1-2.3,2-3.4,3
			C204.1,161.3,202.1,160.9,200.9,161.7z"/>
		<path class="st1" d="M159.1,164.2c8.6,5.5,18.2,7.4,28.2,7.5c0,2.8,2.1,5.6-0.2,8.3l0,0c-0.3,2.4-2,2.7-3.9,2.4
			c-10.4-1.7-20.9-1.4-28.9-1.9c8.1-0.1,18.6,0.9,28.9,3.4c4.1,1,4.5,1.8,2.7,5.3c-1.4,2.3-3.4,3-6,3.1c-10.9,0.3-21.7-1.6-32.6-2
			c-12-0.4-24-0.6-36.1-0.2c-5.6,0.6-11.2,1.3-16.8,2.2c-3.2,0.5-6.5,0.3-9.7,0.3c-1.9,0-3.7-0.5-5-2.1c-1.4-3.6-1.4-7.4-1.2-11.2
			c2.8-2.6,6.7-1.8,9.9-3.2c0.7-1,1.8-1.4,2.9-1.6c8.8-1.7,17.7-2.8,26.7-2.8c0.8,0,1.6,0.1,1.6,0.1c-1.9-0.3-4.5-0.1-7.2,0
			c-6.6,0.3-13.1,0.2-19.6,1c-1.5,0.2-2.9-0.6-4.5-0.4c-2.3,0.2-4.5,0.4-6.8,0.7c-2.1,0.3-3.5,0.2-3.1-2.5c0.1-0.9,0.1-1.8,0-2.7
			c-0.3-2.2,0.3-3.3,2.8-3.1c2.8,0.2,5.5-0.6,8.2-1.5c3.2-1.1,6.3-1.3,9.5,0.1c1.6,0.4,3.4,0.3,4.8,1.4c8.6,3,17.3,2.6,26,1
			c6.7-1.2,13.2-3.2,19-7c1.9-1.3,3.2-0.6,4.5,0.6C155.3,160.8,157.7,161.9,159.1,164.2z"/>
	</g>
</g>
</svg>
