<?xml version="1.0" encoding="utf-8"?>
<!-- Generator: Adobe Illustrator 23.0.1, SVG Export Plug-In . SVG Version: 6.00 Build 0)  -->
<svg version="1.1" id="OBJECTS" xmlns="http://www.w3.org/2000/svg" xmlns:xlink="http://www.w3.org/1999/xlink" x="0px" y="0px"
	 viewBox="0 0 266.6 266.8" style="enable-background:new 0 0 266.6 266.8;" xml:space="preserve">
<style type="text/css">
	.st0{fill:#3F250A;}
	.st1{fill:#FEFEFE;}
</style>
<g>
	<circle class="st0" cx="133.3" cy="133.4" r="124.7"/>
	<g>
		<path class="st1" d="M221.3,170.2c-20.2,7.2-38.9,4.1-56.3-8.1c-1.1-0.1-1.7-0.7-1.8-1.9c-2.3-2.5-2.2-4.9-0.3-7.7
			c2.5-3.8,3-6.7,2.9-11.5c-9.7,15.8-24.2,23.2-41.1,25.7c-24.1,3.6-45-2.4-58.7-21.2c-2.3-1.8-2.8-4.6-3.6-7.2
			c-0.1-0.1,0-0.3-0.2-0.3c0.2,0.4,0.3,0.9,0.4,1.4c0.9,2.7,1.3,5.5,1.3,8.4c1,6.3,5.2,10.7,9.3,15.2c-14.7,7.1-34.5-0.5-41.9-15.9
			c-10.2-21.1-3.9-43.8,15.7-56.6c7.1-4.6,14.8-7.7,23.5-9.2c-0.5,9.1-0.2,17.9,5.9,25.2c-0.5-2.7-1.2-5.4-1.4-8.2
			c-0.2-2.9-0.3-6,0.2-8.9c2.3-14.2,11-23.4,24-28.3c17.5-6.5,34.9-6.5,51,4.4c10.1,6.8,15.9,16.4,16.9,28.7c0.1,1,0.2,2,0.4,2.9
			c0.1,0.5,0.3,0.9,0.6,1.9c6-14.7,17.4-20.4,32.2-20.7c6.2-0.1,12,0.5,15.9,6.1c6.5,6.4,10.2,14,10.3,23.2c0,2.2-0.1,3-2.8,2.9
			c-5.3-0.3-10.4,0.9-15.2,3.3c-0.8,1.5,0,1.4,1,1.1c14.4-1.2,22.9,3.2,28.2,14.8c4.9,10.8,2,25.1-7,33.7c-1.4,1.4-2.9,2.6-4.4,3.9
			C225.4,169.7,222.9,169.1,221.3,170.2z"/>
		<path class="st1" d="M166.9,173.4c11.2,7.1,23.6,9.6,36.7,9.7c-0.1,3.6,2.8,7.2-0.2,10.8l0,0c-0.4,3.1-2.6,3.6-5.1,3.2
			c-13.5-2.2-27.2-1.8-37.6-2.5c10.6-0.2,24.2,1.1,37.5,4.4c5.3,1.3,5.8,2.4,3.5,7c-1.8,3-4.4,3.9-7.9,4
			c-14.2,0.3-28.2-2.1-42.4-2.6c-15.6-0.6-31.3-0.8-46.9-0.2c-7.3,0.7-14.6,1.7-21.8,2.9c-4.2,0.6-8.5,0.4-12.7,0.3
			c-2.5,0-4.8-0.6-6.5-2.7c-1.9-4.7-1.9-9.6-1.5-14.5c3.7-3.3,8.7-2.3,12.8-4.1c0.9-1.3,2.3-1.9,3.8-2.1c11.5-2.2,23-3.6,34.7-3.6
			c1,0,2.1,0.1,2.1,0.2c-2.5-0.3-5.9-0.1-9.3,0c-8.5,0.4-17.1,0.3-25.6,1.3c-2,0.2-3.8-0.8-5.8-0.5c-2.9,0.3-5.9,0.5-8.8,0.9
			c-2.7,0.4-4.6,0.2-4-3.3c0.2-1.1,0.1-2.3,0-3.5c-0.4-2.9,0.4-4.3,3.6-4.1c3.7,0.3,7.2-0.8,10.6-1.9c4.2-1.4,8.2-1.7,12.4,0.1
			c2.1,0.5,4.4,0.4,6.2,1.9c11.1,3.8,22.5,3.4,33.8,1.3c8.7-1.6,17.2-4.2,24.7-9.1c2.5-1.6,4.1-0.8,5.9,0.8
			C161.9,169,165,170.4,166.9,173.4z"/>
	</g>
</g>
</svg>
