<?xml version="1.0" encoding="utf-8"?>
<!-- Generator: Adobe Illustrator 23.0.1, SVG Export Plug-In . SVG Version: 6.00 Build 0)  -->
<svg version="1.1" id="OBJECTS" xmlns="http://www.w3.org/2000/svg" xmlns:xlink="http://www.w3.org/1999/xlink" x="0px" y="0px"
	 viewBox="0 0 223.5 188.7" style="enable-background:new 0 0 223.5 188.7;" xml:space="preserve">
<style type="text/css">
	.st0{fill:#3F250A;}
	.st1{fill:#FEFEFE;}
	.st2{fill:#080808;}
	.st3{fill:#0A0A0A;}
	.st4{fill:#101010;}
	.st5{fill:#0C0C0C;}
	.st6{fill:#020202;}
	.st7{fill:#090909;}
	.st8{fill:#141414;}
	.st9{fill:#0D0D0D;}
	.st10{fill:#727272;}
	.st11{fill:#010101;}
	.st12{fill:#060606;}
	.st13{fill:#030303;}
	.st14{fill:#070707;}
	.st15{fill:#0B0B0B;}
	.st16{fill:#0F0F0F;}
	.st17{fill:#121212;}
	.st18{fill:#0E0E0E;}
	.st19{fill:#808080;}
	.st20{fill:#A6A6A6;}
	.st21{fill:#040404;}
	.st22{fill:#BFBFBF;}
	.st23{fill:#FCFCFC;}
	.st24{fill:#EBEBEB;}
	.st25{fill:#BEBEBE;}
	.st26{fill:#FDFDFD;}
	.st27{fill:#FBFBFB;}
	.st28{fill:#E7E7E7;}
	.st29{fill:#D7D7D7;}
	.st30{fill:#DDDDDD;}
	.st31{fill:#E8B71A;}
</style>
<g>
	<g>
		<path class="st0" d="M112.2,114c30.2,0,60.4,0,90.6,0c0.8,0,1.1,0.1,1,1c-0.1,1.3-0.1,2.6,0,3.9c0,0.7-0.2,0.8-0.8,0.8
			c-2.6,0-5.2,0-7.7,0c-0.7,0-1,0.2-1.2,0.9c-2.3,7.3-5.6,14.1-9.8,20.5c-5.3,8-11.7,15.1-19.3,21c-10.5,8.1-22.2,13.6-35.2,16.3
			c-8.5,1.8-17,2.2-25.7,1.4c-16.1-1.5-30.6-7.1-43.6-16.7c-9.7-7.2-17.5-16.1-23.5-26.7c-2.9-5-5.2-10.3-6.9-15.9
			c-0.2-0.6-0.5-0.8-1.2-0.8c-2.6,0-5.3,0-7.9,0c-0.5,0-0.7-0.1-0.7-0.7c0-1.4,0.1-2.7,0-4.1c0-0.7,0.1-0.9,0.9-0.9
			c15.6,0,31.3,0,46.9,0C82.9,114,97.5,114,112.2,114z"/>
		<path class="st0" d="M49.4,34.9c0.8-1,1.7-1.9,2.7-2.8c0.3,0,0.3,0.2,0.3,0.4c0.1,0.6,0.6,0.5,1,0.5c0.5,0,0.6-0.4,0.6-0.7
			c0-0.2,0-0.4,0-0.7c0-0.6,0-1.2,0.5-1.7c1.1-1.1,2.4-2.1,3.6-3.1c0.3,1,0.9,1,1.8,1c2.2-0.1,2,0.2,1.9-1.9c0-0.9,0.3-1.7,0.8-2.4
			c1.9-1.4,3.9-2.7,5.9-3.8c0.4,0,0.3,0.4,0.4,0.7c0.1,0.5,0,1,0,1.5c0,0.3,0,0.6,0.4,0.6c0.4,0,0.4-0.3,0.4-0.6
			c0-0.6,0.1-1.3-0.5-1.8c-0.2-0.2-0.3-0.5-0.1-0.8c0.7-0.5,1.5-0.9,2.3-1.3c0.6-0.2,0.6,0.2,0.7,0.6c0.1,0.3,0,0.7,0.1,1.1
			c0.4-0.8-0.1-1.4-0.2-2c0.7-0.4,1.5-0.8,2.3-1.1c0.1,0,0.3-0.1,0.4,0c0.1,0.9,0.8,0.7,1.4,0.7c0.4,0,0.8,0,1.3-0.1
			c-0.5-0.2-1-0.1-1.4-0.1c-0.3,0-0.7,0-0.9-0.2c-0.1-0.1-0.3-0.3-0.1-0.4c0.4-0.1-0.1-0.3,0.1-0.3c2.4-1.2,4.9-2.2,7.4-3.1
			c0.7-0.2,0.6,0.5,0.9,0.9c0.1,0.2,0,0.6,0.4,0.7c0.5,0.1,1.1,0.1,1.6-0.1c0.2-0.1,0.2-0.3,0.2-0.5c0-0.5,0.1-1-0.1-1.5
			c0-0.2-0.2-0.4,0.1-0.6c0.4-0.1,0.9-0.3,1.3-0.4c0.2,0.9,1,0.4,1.5,0.5c0.3,0,0.5-0.1,0.4-0.5c-0.3,0.3-0.5,0.3-0.9,0.2
			c-0.3-0.1-0.3-0.3,0-0.5c4.5-1.4,9.1-2.3,13.8-2.8c0.2-0.1,0.5-0.1,0.3,0.2c-0.3,0.8,0.3,0.7,0.7,0.7c2.5,0,5,0,7.5,0
			c0.6,0,1.3,0,2.1,0c-0.6-0.3-1.4,0.1-1.6-0.7c-0.1-0.5,0.4-0.6,0.6-0.8c2,0,4.1-0.1,6.1,0.2c0,0.4,0.3,0.7,0.3,1.2
			c0.2-0.4-0.1-0.9,0.5-1.1c0.4-0.1,0.9,0,1.3,0c5,0.4,9.9,1.2,14.8,2.5c10.7,2.9,20.5,7.6,29.5,14.2c0.4,0.3,0.8,0.6,1.1,0.9
			c0,0.3-0.4,0.4-0.4,0.7c0,1.3-0.2,1.4,1.8,1.3c-0.3-0.2-0.6-0.1-0.8-0.2c-0.3,0-0.7-0.1-0.7-0.6c0-0.4,0.4-0.5,0.7-0.5
			c0.1,0,0.3,0,0.4,0.1c2.3,1.7,4.4,3.6,6.4,5.6c2.6,2.5,5.1,5.2,7.2,8c0.2,0.4,0.5,0.8,0.1,1.4c-0.3,0.4-0.1,1.1,0,1.6
			c0,0.3,0.2,0.4,0.5,0.4c0.7,0,0.8,0.5,0.8,1c0,0.1,0,0.2,0,0.2c0,1.3,0.5,1.7,1.8,1.3c0.3-0.1,0.4-0.3,0.2-0.4
			c-0.9-0.4-1-1.3-1.4-2c-0.1-0.2-0.3-0.4-0.1-0.7c0.3-0.3,0.4,0.2,0.6,0.2c1,1.4,2.1,2.8,2.9,4.3c0.2,0.4,0.2,0.7,0.1,1.2
			c-0.2,0.7-0.1,1.5-0.1,2.2c0,0.3,0.2,0.5,0.5,0.5c0.7,0,0.8,0.5,0.8,1.1c0,0.2,0,0.4,0,0.6c0,0.9,0.3,1.2,1.1,0.9
			c0.8-0.3,1.2,0,1.6,0.6c1.9,3.4,3.3,7,4.6,10.6c0.3,0.9,0.3,2.3,1.1,2.7c0.7,0.4,1.9,0.1,2.9,0.1c1.9,0,3.8,0,5.8,0
			c0.5,0,0.7,0.1,0.6,0.6c0,1.5,0,3,0,4.4c0,0.6-0.2,0.7-0.7,0.7c-0.1,0-0.3,0-0.4,0c-60.4,0-120.8,0-181.2,0c-1.1,0-1.1,0-1.1-1.1
			c0-1.3,0-2.6,0-3.9c0-0.7,0.2-0.8,0.8-0.8c2.6,0,5.2,0,7.8,0c0.6,0,0.9-0.2,1.1-0.8c1.7-5.4,4-10.5,6.7-15.5
			c0.1-0.1,0.1-0.2,0.2-0.3c0.4,0.1,0.7,0.7,0.8,1.4c0,0.3,0,0.6,0.1,0.9c0.1-1.2,0.2-2.5-0.1-3.7c0,0,0.1-0.1,0.1-0.1
			c0.4-0.4,0.9-0.8,1.1-1.4c0.1-0.2,0.3-0.4,0.5-0.3c0.3,0.1,0.1,0.3,0.1,0.5c0,0.3,0.2,0.2,0.3,0.2c0.2,0,0.5,0,0.6-0.3
			c0.1-0.2,0-0.4-0.2-0.6c-0.4-0.2-0.8-0.4-0.7-0.9c0.3-0.5,0.6-1,1-1.4c0.7-0.2,1.1-0.8,1.6-1.1c0.7-0.4,1.5-1.1,2.5-0.9
			c0.4,0.1,0.9,0.2,1.1-0.3c0.2-0.5,0.1-1.1,0-1.6c0-0.1-0.2-0.2-0.3-0.3c-1-0.1-1-0.7-0.7-1.4c0.9-1.3,2-2.4,3-3.6
			c0.9-0.9,2-0.7,3.2-0.8C50.5,35.3,49.6,35.9,49.4,34.9z"/>
		<path class="st0" d="M111.3,7.8c0.2,0.3,0.2,0.4-0.1,0.3c-0.3,0-0.4,0.1-0.4,0.3c0,0.2,0,0.5,0.3,0.5c0.4,0,0.8,0,1.2,0
			c0.2,0,0.4,0.1,0.4,0.3c0,0.3-0.2,0.3-0.4,0.3c-0.2,0-0.4,0-0.6,0c-3.1,0-6.2,0-9.3,0c-1.1,0-1.2-0.1-0.6-1.1
			c-0.1,0-0.1-0.1-0.2-0.1c0.3-0.1,0.6-0.1,0.9-0.1c1.4,0.8,2.8,0.3,4.2,0.4c0.5,0,0.2-0.5,0.4-0.7C108.5,7.7,109.9,7.8,111.3,7.8z"
			/>
		<path class="st0" d="M188.8,54.7c-0.3-0.1-0.6-0.2-0.7-0.5c-0.1-0.2-0.1-0.3-0.3-0.1c-0.1,0.2-0.3,0.2-0.6,0.2
			c-1.5,0.1-1.5,0.1-1.5-1.3c0-0.2,0-0.4,0-0.6c0.1-0.5-0.1-0.8-0.7-0.7c-0.5,0.1-0.7-0.2-0.6-0.7c0.1-0.9-0.3-1.9,0.2-2.8
			c0.1-0.2-0.5-0.4,0-0.7C186.3,49.9,187.7,52.2,188.8,54.7z"/>
		<path class="st0" d="M181.8,43.3c-0.2,0-0.3-0.1-0.5-0.1c0.5,0.5,0.6,1.1,0.7,1.8c0,0.3,0.7,0.2,0.9,0.6c0.1,0.2,0.5,0.3,0.3,0.6
			c-0.2,0.4-0.4,0.3-0.7,0.3c-1.9,0.1-1.9,0-1.9-1.8c0-0.6-0.1-0.9-0.8-0.8c-0.4,0-0.6-0.1-0.6-0.5c0-0.7,0-1.4,0-2.1
			c0-0.4,0.2-0.2,0.4-0.2c0-0.3-0.7-0.5-0.3-0.9C180.4,41.2,181.1,42.2,181.8,43.3z"/>
		<path class="st0" d="M44.9,40c0,0,0.1,0.1,0.1,0.1c0,0.1,0.9,1,1,1.1c0.1,0.1,0.1,0.1,0.2,0.2c0,0.1,0,0.2,0,0.2
			c0.2,2.1,0.2,2.1-1.9,2.1c-0.3,0-0.7-0.1-0.8,0.4c0,0.1-0.1,0.2-0.2,0.2c-0.9-0.2-1.2,0.5-1.5,1c-0.3,0.6-0.8,0-1.1,0.2
			c0.5-0.9,1.1-1.8,1.8-2.6c0.1,0,0.1,0,0.2,0c0.4-0.1,0.9,0.2,1.2-0.2c0.3-0.3,0.1-0.7-0.1-1.1c-0.1-0.2,0.2-0.4,0.2-0.7
			C44.3,40.6,44.6,40.3,44.9,40z"/>
		<path class="st0" d="M62.6,23.5c0,0.1,0.1,0.3,0.1,0.3c-0.9,1-0.6,2.3-0.6,3.4c0,0.7-0.2,0.9-0.9,0.9c-0.6-0.1-1.3,0-1.9,0
			c-1.2,0-1.2,0-1.2-1.2c0.4-0.3,0.7-0.7,1.2-0.9c0.3,0.5,1.1,0.8,1.6,0.5c0.3-0.1,0.3-0.4,0.3-0.6c0-0.6,0.1-1.1,0.3-1.6
			C61.8,23.9,62.2,23.7,62.6,23.5z"/>
		<path class="st0" d="M85.6,11.9c0.2,0.8,0.1,1.6,0.2,2.4c0,0.8-0.5,0.6-0.9,0.5c-0.6-0.2-1.5,0.6-1.7-0.5c-0.1-0.5-0.2-1-0.7-1.3
			C83.5,12.6,84.5,12.2,85.6,11.9z"/>
		<path class="st0" d="M54.5,30c-0.5,0.8-0.3,1.7-0.3,2.6c0,0.5-0.1,0.7-0.7,0.8c-1,0.1-1.4-0.2-1.4-1.2
			C52.8,31.3,53.6,30.6,54.5,30z"/>
		<path class="st0" d="M107.2,7.9c0.2,0.2,0.4,0.4,0.3,0.8c-0.1,0.3-0.5,0.2-0.7,0.2c-0.9,0-1.9,0-2.8,0c-0.6,0-1.1-0.1-1.4-0.6
			C104.1,8.1,105.6,7.9,107.2,7.9z"/>
		<path class="st0" d="M69.1,19.3c0.2,0.3,0.1,0.9,0.7,1c0.2,0,0.1,0.3,0.1,0.5c0,0.5,0,0.9,0,1.4c0,0.5-0.2,0.6-0.7,0.6
			c-0.5,0-0.6-0.2-0.7-0.7c0-0.8,0.2-1.7-0.1-2.5C68.7,19.4,68.9,19.3,69.1,19.3z"/>
		<path class="st0" d="M61.5,24.2c0.1,0,0.3,0.2,0.3,0.2c-0.8,0.4-0.4,1.1-0.4,1.7c0,0.5-0.2,0.7-0.7,0.7c-0.3,0-0.5,0-0.8,0
			c-0.6,0-0.9-0.2-0.6-0.8C60,25.3,60.7,24.7,61.5,24.2z"/>
		<path class="st0" d="M38,50.1c0.3,0.2,0.4,0.4,0.4,0.8c0,1,0,2,0,3c0,0.2,0,0.5-0.3,0.5c-0.4,0-0.4-0.3-0.3-0.5
			c0.1-0.8-0.2-1.6-0.6-2.3C37.4,51.1,37.7,50.6,38,50.1z"/>
		<path class="st0" d="M39.8,47.1c0.2,0.3,0.4,0.7,0.9,0.7c0.5,0.1,0.2,0.5,0.3,0.8c0,0.4-0.2,0.5-0.5,0.5c-0.3,0-0.6,0-1,0
			c-0.2-0.3,0.2-0.5,0.2-1c-0.7,0.7-0.7,1.7-1.7,1.8C38.6,48.9,39.2,48,39.8,47.1z"/>
		<path class="st0" d="M165.8,26.6c-0.2,0.3-1-0.1-0.9,0.5c0.1,0.6,0.7,0.2,1,0.3c0.2,0,0.3,0.1,0.5,0.1c0.1,0.1,0.3,0.1,0.3,0.3
			c0,0.1-0.2,0.2-0.3,0.2c-0.6,0-1.2,0-1.7,0c-0.3,0-0.4-0.1-0.4-0.5c0-0.4,0-0.7,0-1.1c-0.1-0.6,0.1-0.8,0.7-0.7
			C165.2,26,165.5,26.2,165.8,26.6z"/>
		<path class="st0" d="M75,16.1c-0.1,0.2,0.8,0.3-0.1,0.5c0.6,0.4,1.2,0.2,1.8,0.2c0.2,0,0.5,0,0.7,0c0.2,0,0.4,0.1,0.4,0.3
			c0,0.3-0.2,0.3-0.4,0.3c-0.8,0-1.6,0-2.5,0c-0.4,0-0.5-0.2-0.4-0.5c0-0.2,0.1-0.4-0.2-0.5C74.6,16.3,74.8,16.2,75,16.1z"/>
		<path class="st0" d="M49.4,34.9c0.4,0.5,1,0.3,1.5,0.3c0.2,0,0.6-0.1,0.6,0.3c0,0.4-0.4,0.3-0.6,0.3c-0.1,0-0.3,0-0.4,0
			c-0.9-0.2-1.7,0.3-2.5,0.5C48.3,35.9,48.8,35.4,49.4,34.9z"/>
		<path class="st0" d="M44.1,41c0.1,0.6,0.1,1.2,0.2,1.8c0,0.2-0.1,0.3-0.3,0.3c-0.4,0-0.9,0.2-1.3-0.1C43.1,42.3,43.5,41.6,44.1,41
			z"/>
		<path class="st0" d="M87.9,11.2c0,0.7,0.4,0.3,0.7,0.3c-0.1-0.3,0.1-0.3,0.3-0.2c0.2,0.1,0.1,0.4,0.2,0.6c0,0.2,0,0.3-0.2,0.3
			c-0.6,0-1.2,0.1-1.8,0c-0.3-0.1,0.2-0.5-0.1-0.7C87.2,11.4,87.5,11.2,87.9,11.2z"/>
		<path class="st0" d="M72.1,17.6c0.6,0.6,0.5,1.3,0.5,2c0,0.2,0,0.5-0.3,0.4c-0.3,0-0.3-0.2-0.3-0.5c0-0.3,0-0.7,0-1
			c0-0.4-0.1-0.6-0.5-0.7C71.6,17.8,71.8,17.7,72.1,17.6z"/>
		<path class="st0" d="M119.4,8.1c-0.2,0-0.3,0.2-0.5,0.1c-0.9-0.2-1.2,0.1-0.9,1c0.1,0.2,0,0.3-0.2,0.4c-0.1,0-0.4,0-0.3-0.1
			c0-0.5-0.3-1-0.1-1.5C118.1,7.9,118.7,7.9,119.4,8.1z"/>
		<path class="st1" d="M47.9,136.7c-2.3-3.5-4.3-7.1-6-10.9c-0.9-2-1.6-4-2.5-6c0.2-0.2,0.4-0.1,0.6-0.1c7,0,13.9,0,20.9,0
			c0.5,0,0.8,0.2,1.1,0.6c2.8,5.3,6.3,10.1,10.6,14.2c5.4,5.3,11.7,9.3,18.7,12.1c8.1,3.2,16.4,4.5,25.1,3.7
			c12.6-1,23.7-5.8,33.2-14.1c5.1-4.5,9.3-9.8,12.5-15.9c0.2-0.4,0.4-0.7,1-0.7c7,0,14.1,0,21.1,0c0.2,0,0.3,0,0.5,0
			c-0.7,2.1-1.6,4.1-2.4,6.1c-0.1,0.7-0.5,1.3-0.8,2c-2.3,4.7-5,9.1-8.2,13.2c-1.5,2-3.2,3.8-4.8,5.6c-2.8,3.1-5.9,5.7-9.1,8.3
			c-1.8,1.3-3.6,2.6-5.4,3.8c-3.1,2-6.3,3.8-9.6,5.3c-3.6,1.6-7.2,3-11,4.1c-13.1,3.7-26.4,4.1-39.6,0.8c-0.2-0.1-0.5-0.2-0.7-0.2
			c-0.1,0-0.2,0-0.2-0.1c-0.2-0.1-0.5-0.1-0.7-0.2c-3.6-0.9-7-2.2-10.4-3.6c-4.6-1.9-8.9-4.3-13-7.1c-0.6-0.4-1.2-0.8-1.7-1.2
			c-3.5-2.6-6.9-5.4-10-8.5c-0.2-0.2-0.4-0.4-0.6-0.6c-1-1.3-2.3-2.4-3.3-3.7c-1.4-1.7-2.7-3.4-4-5.2
			C48.7,138.1,48.2,137.5,47.9,136.7z"/>
		<path class="st1" d="M94.3,142.1c-1,0.4-2.1,0.5-3.2,0.4c-0.7-0.1-1.3-0.4-1.6-1c-0.3-0.7,0-1.3,0.5-1.8c0.7-0.8,1.7-1.3,2.7-1.6
			c5.2-1.5,10.4-3.1,15.7-4.6c0.2-0.1,0.4-0.1,0.7-0.2c-2.8-1-5.4-2-8.1-3c-0.7-0.3-1.3,0.1-1.8,0.5c-0.6,0.4-1.2,0.9-2,1.1
			c-0.4,0.1-0.8,0.1-1.2,0c-3.9-1.4-7.9-2.7-11.8-4.1c-0.3-0.1-0.6-0.2-0.9-0.2c-0.5,0-1-0.1-1.3-0.5c-0.4-0.2-0.8-0.3-1.1-0.5
			c-0.3-0.1-0.7-0.3-0.5-0.7c0.1-0.4,0.5-0.3,0.9-0.2c0.2,0,0.4,0.1,0.5,0.2c4,1.3,7.9,2.6,11.9,3.9c0.2,0.1,0.4,0.1,0.6,0.2
			c0.2,0,0.4-0.1,0.5-0.3c0.1-0.3-0.1-0.4-0.3-0.5c-0.2-0.1-0.4-0.2-0.6-0.2c-4-1.3-7.9-2.6-11.9-3.9c-0.4-0.1-1.3-0.2-1-0.9
			c0.2-0.6,0.9-0.2,1.3-0.1c3,1,6,1.9,9.1,2.9c0.9,0.1,1.7,0.4,2.6,0.7c0.2,0.1,0.4,0.1,0.6,0.2c0.2,0,0.4,0,0.4-0.2
			c0-0.2-0.1-0.3-0.3-0.4c-0.6-0.2-1.2-0.4-1.8-0.6c-0.3-0.1-0.6-0.2-0.9-0.4c-3.1-1-6.3-2.1-9.4-3.1c-0.5-0.2-1.3-0.2-1.1-0.9
			c0.2-0.6,0.9-0.2,1.4,0c3.9,1.3,7.9,2.5,11.8,3.8c0.1,0,0.2,0,0.3,0.1c0.4,0.2,0.7,0.2,0.9-0.2c0.2-0.5-0.2-0.6-0.6-0.7
			c-1.8-0.6-3.6-1.2-5.4-1.7c-2.3-0.7-4.6-1.5-6.9-2.2c-0.4-0.1-1.2-0.2-0.9-0.9c0.2-0.5,0.8-0.2,1.2-0.1c4.7,1.4,9.5,2.9,14.2,4.3
			c1.2,0.3,2,1,2.3,2.2c0.4,1.6,1.4,2.3,2.9,2.7c3.2,0.8,6.4,1.7,9.6,2.6c0.4,0.1,0.7,0.1,1.1,0c4.3-1.3,8.6-2.5,12.9-3.8
			c0.3-0.1,0.7-0.1,0.6-0.7c-0.1-2.3,1.1-4,3-5.1c3.4-1.9,7.1-2.6,10.9-1.7c1.1,0.2,2.1,0.6,2.6,1.6c0.7,1.2,0.4,2.6-0.6,3.9
			c-1.8,2.3-4.2,3.6-6.8,4.8c-0.3,0.3-0.8,0.2-1.2,0.3l-0.1,0l-0.1,0c-0.1,0.1-0.2,0.1-0.3,0.1c-1.3,0.1-2.6,0.4-3.9,0
			c-0.9-0.2-1.7-0.7-2.4-1.3c-0.1,0-0.2-0.1-0.2-0.1c-0.5-0.9-1.2-0.7-1.9-0.3c-0.3,0.2-0.7,0.2-1,0.2c-2.6,1-5.2,2-8.1,3.1
			c1.1,0.3,1.9,0.5,2.8,0.8c3.9,1,7.7,2.1,11.6,3.1c1.1,0.3,2.1,0.7,3.1,1.3c0.9,0.7,1.5,1.7,1.2,2.3c-0.4,1-1.3,1.2-2.3,1.2
			c-1.2,0-2.3-0.3-3.3-0.8c-5.4-2-10.9-4.1-16.3-6.2c-0.4-0.1-0.7-0.2-1.2-0.1c-5.5,2.2-11,4.3-16.5,6.4c-0.1,0-0.2,0.1-0.3,0.2
			C95.4,141.9,94.9,142,94.3,142.1z"/>
		<path class="st1" d="M187,123.5c-1.2,2.8-2.5,5.7-3.9,8.4c-0.2,0.8-0.6,1.5-1.2,2.1c-1.2,1.9-2.4,3.8-3.6,5.7
			c-0.1,0.2-0.4,0.2-0.3,0.5c-0.1,0.3-0.3,0.5-0.5,0.7c-2.5,3.3-5.2,6.5-8.1,9.6c-0.4,0.8-1,1.4-1.9,1.8c-2.2,2-4.5,3.9-6.8,5.8
			c-0.1,0.3-0.4,0.4-0.6,0.5c-3.6,2.6-7.4,5-11.4,7c-2.3,1.2-4.7,2.2-7.1,3.2c-0.9,0.7-2,0.9-3,1.1c-0.7,0.1-1.4,0.4-2.1,0.7
			c-0.6,0.4-1.3,0.6-2,0.6c-2.6,0.6-5.1,1.2-7.7,1.9c-0.6,0-1.1,0.5-1.7,0.3c-3.8,0.5-7.6,0.9-11.4,1c-16.3,0.2-31.3-4-45-12.7
			c-1.4-0.9-2.8-1.9-4.2-2.8c-0.5-0.1-0.9-0.5-1.2-0.9c-1.7-1.4-3.5-2.9-5.2-4.3c-0.7-0.2-1.1-0.8-1.6-1.3c-1-0.9-2.1-1.7-2.7-2.9
			c-2.6-2.8-5-5.8-7.3-8.9c-2.8-3.9-5.2-8-7.3-12.4c0-0.1-0.1-0.2-0.2-0.3c-0.9-1.3-1.4-2.7-1.8-4.1c-0.5-1.4-1-2.7-1.5-4.2
			c0.6,0,1.1,0,1.6,0c0.5,0,0.5,0.4,0.6,0.7c1.6,4.4,3.5,8.7,5.9,12.7c1,1.7,2,3.4,3.2,5c0.3,0.2,0.5,0.5,0.8,0.8
			c0.9,1.3,2,2.6,2.9,4c0.1,0.2,0.3,0.4,0.5,0.6c0.1,0.1,0.2,0.2,0.3,0.4c0.1,0.1,0.1,0.2,0.2,0.2c0,0.1,0.1,0.1,0.1,0.2
			c0.1,0.2,0.3,0.3,0.4,0.5c1.9,2.2,3.8,4.4,6,6.4c2.3,2.1,4.7,4.1,7.2,6c0.3,0.2,0.7,0.5,1,0.7c0.7,0.5,1.4,1,2.1,1.5
			c1.8,1.3,3.8,2.4,5.8,3.5c4.3,2.4,8.9,4.3,13.6,5.8c1.5,0.5,2.9,0.9,4.4,1.3c3.6,0.9,7.2,1.6,10.8,2c4.6,0.5,9.2,0.6,13.9,0.3
			c4.2-0.2,8.3-0.9,12.4-1.8c1.7-0.4,3.3-0.8,5-1.3c3.7-1,7.3-2.4,10.8-4.1c2.8-1.4,5.6-2.8,8.3-4.4c2.3-1.4,4.5-3,6.6-4.6
			c1.9-1.5,3.7-3,5.5-4.7c3.1-2.9,5.9-6.1,8.5-9.4c2.4-3.1,4.5-6.3,6.4-9.7c0.9-1.7,1.8-3.5,2.7-5.3c0.4-0.7,0.6-1.5,1.1-2.1
			c0.7-1.4,1.2-2.8,1.7-4.2c0.2-0.6,1.5-1.1,2.1-0.8c0.3,0.2,0.1,0.3,0,0.5c-0.3,0.8-0.5,1.7-0.8,2.5
			C187.3,123,187.3,123.3,187,123.5z"/>
		<path class="st0" d="M53.9,149.5c1.4,1.4,2.9,2.8,4.3,4.2c-0.3,0.2-0.8,0-0.7,0.6c0,0.2-0.3,0.2-0.5,0.2c-0.7,0-1.5,0-2.2,0
			c-0.4,0-0.6-0.2-0.6-0.6c0-0.4,0-0.9,0-1.3c0-0.3,0.1-0.6-0.4-0.8c-0.4-0.1-0.4-1.6,0-2C53.8,149.7,53.8,149.6,53.9,149.5z"/>
		<path class="st0" d="M167.5,152.3c0.6-0.6,1.2-1.2,1.9-1.8c0.9,0,1.8,0,2.8,0c0.5,0,0.6,0.3,0.6,0.7c0,0.4-0.1,0.7-0.6,0.7
			c-0.4,0-0.8,0-1.2,0c-0.4,0-0.8-0.1-0.9,0.5c0,0.2-0.2,0.2-0.4,0.2C168.9,152.5,168.2,152.6,167.5,152.3z"/>
		<path class="st0" d="M134.5,171.2c0.6-0.3,1.3-0.5,2-0.6c-0.1,0.8,0.2,1.1,1,1c0.5-0.1,1.1-0.2,1,0.7c0,0.5-0.2,0.6-0.6,0.6
			c-0.8,0-1.7,0-2.5,0c-0.7,0-0.9-0.2-0.8-0.8C134.5,171.8,134.7,171.5,134.5,171.2z"/>
		<path class="st0" d="M138.6,170c1-0.4,2-0.7,3-1.1c0.1,0.7,0.5,0.9,1.2,0.8c1-0.1,2,0,3,0c0.3,0,0.5,0,0.5,0.4
			c0,0.3-0.3,0.3-0.5,0.3c-1.9,0-3.8,0.1-5.7-0.1C139.7,170.2,139.1,170.2,138.6,170z"/>
		<path class="st0" d="M37.4,123.8c0.6,1.4,1.2,2.8,1.8,4.1c-0.6,0.3-1.2,0.1-1.8,0.1c-0.4,0-0.4-0.3-0.4-0.6c0.1-1-0.3-2,0.2-3
			C37.3,124.4,37.1,124,37.4,123.8z"/>
		<path class="st0" d="M125.1,173.4c0.5-0.2,1.1-0.3,1.7-0.3c-0.1,0.2-0.2,0.2-0.5,0.2c-0.2,0-0.5,0-0.4,0.4c0,0.3,0,0.6,0.4,0.6
			c0.3,0,0.5,0,0.8,0c0.5,0,0.8,0.1,0.8,0.7c0,0.6-0.3,0.6-0.8,0.6c-0.6,0-1.3,0.1-1.7-0.1c-0.5-0.3-0.1-1-0.2-1.5
			C125.2,173.7,125.2,173.6,125.1,173.4z"/>
		<path class="st0" d="M187,123.5c0-0.3,0.1-0.6,0.3-0.9c1.2,0.4,1.2,0.4,1.2,1.8c0,1,0,2,0,3c0,0.2,0.1,0.6-0.3,0.6
			c-0.5,0-0.3-0.4-0.3-0.7c0-1-0.1-2,0-3C187.9,123.7,187.7,123.4,187,123.5z"/>
		<path class="st0" d="M149.7,166.5c0-0.2,0-0.4,0-0.6c0-0.4,0-0.8,0.5-0.3c0.1,0.1,0.3,0,0.4,0c0.4,0,0.9-0.2,1,0.2
			c0.1,0.5,0.2,1.1,0,1.5c-0.3,0.5-1,0.2-1.5,0.2c-0.4,0-0.4-0.3-0.4-0.6C149.7,166.9,149.7,166.7,149.7,166.5z"/>
		<path class="st2" d="M92,126.2c0.9,0.3,1.9,0.6,2.8,0.8c0.3,0.1,0.5,0.3,0.4,0.7c-0.1,0.4-0.4,0.4-0.7,0.3
			c-1.1-0.4-2.2-0.7-3.2-1.1C91.9,127,91.6,126.2,92,126.2z"/>
		<path class="st2" d="M184.4,124.7c-0.2,0.8-0.6,1.5-1,2.1c-0.4,0.3-0.7,0.7-1.2,0.9c-0.3,0.1-0.5,0.2-0.7-0.1
			c0.3-0.6,0.5-1.3,0.9-1.9c0,0.1,0,0.3,0.1,0.7C182.9,125.4,183.3,124.6,184.4,124.7z"/>
		<path class="st0" d="M125.1,130.1c0.3-0.1,0.6-0.3,1-0.4c1.3-0.5,1.3-0.5,2.2,0.6c-0.4,0.4-2.2,0.7-2.7,0.5
			C125.2,130.6,125.4,130.2,125.1,130.1z"/>
		<path class="st0" d="M96,131.8c0.4,0,0.8,0,1.2,0c0.2,0.2,0.4,0.2,0.6,0.1c0.5-0.2,1.2,0.3,1.2,0.9c0,0.4-0.1,0.6-0.6,0.6
			c-1.2,0-1.2,0.1-1.4-1.1c0-0.3-0.1-0.4-0.4-0.4C96.3,132,96.1,132,96,131.8z"/>
		<path class="st0" d="M181.9,134.1c0.3-0.7,0.7-1.5,1.2-2.1c0.3,1.2,0.1,2.5,0.2,3.7c0,0.2-0.1,0.4-0.3,0.4c-0.3,0-0.3-0.2-0.3-0.4
			c0-0.4,0-0.8,0-1.1C182.6,133.9,182.4,133.7,181.9,134.1z"/>
		<path class="st0" d="M160,158.6c0.2-0.2,0.4-0.4,0.6-0.5c0.1,0.4,0.4,0.2,0.7,0.2c0.5,0,0.9,0.2,0.8,0.8c0,0.7-0.4,0.5-0.8,0.6
			C160.4,160,160.2,159.4,160,158.6z"/>
		<path class="st3" d="M47.7,138.9c-0.3-0.2-0.5-0.5-0.6-0.9c0.4-0.1,0-1,0.8-0.8c0.2,0.1-0.3-0.4,0-0.6c0.5,0.7,0.9,1.3,1.4,2
			c-0.1,0.6-0.3,0.9-0.8,0.3C48.2,138.6,48,138.9,47.7,138.9z"/>
		<path class="st0" d="M63.4,158c0.4,0.3,0.8,0.6,1.2,0.9c-0.2,0.1-0.6,0-0.5,0.5c0,0.5-0.4,0.3-0.7,0.4c-0.3,0-0.6,0-0.5-0.4
			c0.1-0.4-0.4-1.1,0.6-1C63.5,158.4,63.3,158.1,63.4,158z"/>
		<path class="st0" d="M138.5,132.1c0,0.3,0,0.6,0,0.9c0,0.2,0,0.4-0.3,0.4c-0.2,0-0.3-0.1-0.3-0.4c0-0.7,0-1.4,0-2.1
			c0-0.1,0-0.4,0.3-0.3c0.2,0,0.4,0.1,0.3,0.4C138.4,131.4,138.5,131.7,138.5,132.1C138.5,132.1,138.5,132.1,138.5,132.1z"/>
		<path class="st0" d="M94.3,142.1c0.5-0.3,1-0.5,1.5-0.6c0.1,0.1,0.2,0.2,0.3,0.3c0.3,0.3,0.4,0.7,0.1,0.9c-0.3,0.2-1.1,0.3-1.2,0
			C94.9,142.2,94.5,142.4,94.3,142.1z"/>
		<path class="st0" d="M82,127c0.5,0.1,0.9,0.2,1.3,0.5c-0.6,1-0.6,1-2-0.3C81.5,127.1,81.8,127.3,82,127z"/>
		<path class="st4" d="M134.5,131.6c0.1-0.1,0.2-0.1,0.3-0.1c0.1,0.2,0.1,0.3,0,0.4c-0.2,0.2-0.4,0.2-0.5,0.1
			C134.1,131.8,134.5,131.8,134.5,131.6z"/>
		<path class="st4" d="M135,131.4c0.4-0.2,0.7-0.3,1.2-0.3C135.8,131.5,135.4,131.4,135,131.4z"/>
		<path class="st5" d="M177.4,141c0.1-0.3,0.3-0.5,0.5-0.7C178.1,140.7,177.9,141,177.4,141z"/>
		<path class="st1" d="M157.1,59.6c-2-2.9-4.5-5.4-7.1-7.7c-0.3-0.3-0.7-0.6-1-0.8c-0.6-0.4-1.2-0.8-1.6-1.4
			c-4.5-3.7-9.6-6.5-15-8.6c-0.5-0.2-1-0.5-1.6-0.6c-0.5,0.1-0.9-0.2-1.3-0.4c-3.2-1.2-6.6-1.8-10-2.3c-3.3-0.4-6.6-0.6-9.9-0.4
			c-4.5,0.2-9,1-13.3,2.2c-2.2,0.6-4.3,1.4-6.4,2.3c-0.3,0.1-0.6,0.3-0.9,0.4c-0.2,0.2-0.4,0.4-0.7,0.3c-3.6,1.6-6.9,3.7-10.1,6
			c-0.9,0.7-1.9,1.3-2.7,2.2c-0.1,0.1-0.2,0.3-0.3,0.3c-1.4,1.1-2.7,2.4-3.9,3.7c-0.4,0.5-0.7,1.1-1.3,1.4c-1.3,1.4-2.5,2.9-3.5,4.4
			c-0.3,0.5-0.5,1.1-1.1,1.5C64,64,63,65.8,62,67.7c-0.2,0.3-0.4,0.5-0.8,0.5c-7.1,0-14.2,0-21.4,0c-0.1,0-0.2,0-0.3,0
			c1.2-3.5,2.7-6.8,4.3-10.1c0.3-1.1,1-2,1.5-3.1c0.5-0.7,0.9-1.4,1.3-2.2c1.3-2.1,2.8-4.1,4.3-6.1c2.2-2.8,4.5-5.4,7.1-7.9
			c0.2-0.2,0.5-0.5,0.7-0.7c1.4-1.5,3-2.8,4.6-4.1c0.6-0.4,1.1-0.9,1.7-1.3c0.8-0.6,1.6-1.3,2.5-1.8c2.2-1.5,4.5-3,6.8-4.3
			c3.2-1.7,6.4-3.4,9.8-4.6c0.7-0.2,1.4-0.5,2.1-0.8c1.6-0.5,3.1-1,4.7-1.5c0.4-0.1,0.7-0.2,1.1-0.3c0.2-0.1,0.5-0.1,0.7-0.2
			c0.9-0.2,1.8-0.4,2.7-0.7c2.7-0.6,5.4-1.1,8.1-1.4c5.2-0.6,10.4-0.8,15.6-0.2c0.3,0,0.7,0,1,0.1c0.3,0.1,0.7,0.1,1,0.1
			c6,0.7,11.8,2.1,17.5,4.2c7.3,2.6,14,6.3,20.3,11c0.4,0.3,0.9,0.7,1.3,1c0.2,0.2,0.4,0.4,0.6,0.5c0.9,0.7,1.8,1.4,2.6,2.2
			c0.2,0.2,0.4,0.4,0.5,0.6c3.5,3.3,6.8,6.7,9.7,10.6c4.8,6.3,8.6,13.2,11.3,20.6c0,0.1,0.1,0.3,0.1,0.4c-0.3,0-0.5,0-0.8,0
			c-6.9,0-13.8,0-20.7,0c-0.6,0-0.8-0.2-1.1-0.6c-0.4-0.7-0.8-1.4-1.2-2.1c-0.5-0.5-0.8-1.1-1.2-1.6c-0.8-1.1-1.4-2.2-2.3-3.3
			C157.3,60.2,157.2,59.9,157.1,59.6z"/>
		<path class="st1" d="M126.8,62.3c-3.4,1.2-6.5,0.7-9.4-1.4c-0.2,0-0.3-0.1-0.3-0.3c-0.4-0.4-0.4-0.8-0.1-1.3
			c0.4-0.6,0.5-1.1,0.5-1.9c-1.6,2.6-4,3.9-6.8,4.3c-4,0.6-7.5-0.4-9.8-3.5c-0.4-0.3-0.5-0.8-0.6-1.2c0,0,0-0.1,0-0.1
			c0,0.1,0.1,0.1,0.1,0.2c0.1,0.5,0.2,0.9,0.2,1.4c0.2,1,0.9,1.8,1.6,2.5c-2.5,1.2-5.7-0.1-7-2.6c-1.7-3.5-0.7-7.3,2.6-9.4
			c1.2-0.8,2.5-1.3,3.9-1.5c-0.1,1.5,0,3,1,4.2c-0.1-0.5-0.2-0.9-0.2-1.4c0-0.5,0-1,0-1.5c0.4-2.4,1.8-3.9,4-4.7
			c2.9-1.1,5.8-1.1,8.5,0.7c1.7,1.1,2.6,2.7,2.8,4.8c0,0.2,0,0.3,0.1,0.5c0,0.1,0,0.2,0.1,0.3c1-2.5,2.9-3.4,5.4-3.4
			c1,0,2,0.1,2.7,1c1.1,1.1,1.7,2.3,1.7,3.9c0,0.4,0,0.5-0.5,0.5c-0.9-0.1-1.7,0.2-2.5,0.6c-0.1,0.3,0,0.2,0.2,0.2
			c2.4-0.2,3.8,0.5,4.7,2.5c0.8,1.8,0.3,4.2-1.2,5.6c-0.2,0.2-0.5,0.4-0.7,0.7C127.4,62.2,127,62.1,126.8,62.3z"/>
		<path class="st1" d="M42.5,57.5c-1.7,3-3,6.2-4.2,9.4c-0.4,1.2-0.4,1.2-1.8,1.2c-0.2,0-0.4,0-0.7,0c0.7-2.1,1.5-4.1,2.3-6.1
			C43.2,50.7,50.3,41,59.7,32.9c7.9-6.8,16.9-11.9,26.8-15.2c6.5-2.2,13.2-3.5,20-4c6.1-0.4,12.1-0.2,18.1,0.8
			c11.1,1.8,21.4,5.6,30.8,11.7c5.2,3.3,9.9,7.1,14.2,11.5c0.4,0.4,0.7,0.7,1.1,1.1c0.2,0.2,0.4,0.2,0.5,0.5
			c1.8,2.2,3.7,4.2,5.4,6.5c5,6.8,8.9,14.2,11.7,22.1c0,0.1,0,0.2,0,0.2c-0.1,0-0.1,0.1-0.1,0.1c-1.7,0-1.7,0-2.4-1.6
			c-1.3-3.5-2.8-7-4.7-10.3c-1.3-2.2-2.5-4.5-4-6.5c-0.3-0.2-0.4-0.5-0.6-0.9c-1.5-2.3-3.3-4.4-5-6.5c-2-2.4-4.2-4.6-6.6-6.7
			c-0.2-0.1-0.3-0.3-0.6-0.3c-0.8-0.4-1.3-1.2-2-1.7c-0.3-0.2-0.6-0.5-1-0.7c-0.2-0.1-0.4-0.3-0.6-0.4c-0.1-0.1-0.1-0.1-0.2-0.2
			c-2.1-1.8-4.4-3.3-6.8-4.8c-6.4-4.1-13.2-7.1-20.5-9.1c-4.1-1.2-8.3-2-12.6-2.4c-0.5-0.1-0.9-0.1-1.4-0.1
			c-2.9-0.3-5.8-0.3-8.7-0.3c-2.7,0.1-5.5,0.3-8.2,0.6c-3.1,0.3-6.1,1-9.1,1.7c-0.2,0-0.3,0.1-0.5,0.1c-0.6,0.1-1.3,0.3-1.9,0.5
			c-0.2,0-0.4,0.1-0.6,0.2c-1.6,0.4-3.1,1-4.6,1.5c-0.7,0.3-1.4,0.5-2.1,0.8c-3.4,1.3-6.6,2.8-9.8,4.6c-0.6,0.3-1.2,0.6-1.8,1
			c-1.7,1-3.2,2.1-4.8,3.1c-1.2,0.8-2.3,1.7-3.5,2.6c-0.5,0.3-0.9,0.7-1.3,1c-0.5,0.4-0.9,0.7-1.3,1.2c-0.7,0.6-1.4,1.2-2.1,1.8
			c-0.5,0.4-0.9,0.9-1.3,1.3c-0.3,0.2-0.6,0.6-0.8,0.9c-1.5,1.5-3,3.1-4.4,4.7c-0.2,0.2-0.5,0.4-0.6,0.7c-0.1,0.1-0.2,0.2-0.3,0.3
			c-0.2,0.2-0.3,0.3-0.5,0.5c-0.3,0.4-0.6,0.8-0.8,1.1c-1.7,2.1-3.1,4.3-4.6,6.5c-0.5,0.8-1,1.7-1.5,2.5
			C43.6,55.7,43.3,56.7,42.5,57.5z"/>
		<path class="st1" d="M117.5,62.8c1.9,1.2,3.9,1.6,6.1,1.6c0,0.6,0.5,1.2,0,1.8l0,0c-0.1,0.5-0.4,0.6-0.8,0.5
			c-2.2-0.4-4.5-0.3-6.3-0.4c1.8,0,4,0.2,6.2,0.7c0.9,0.2,1,0.4,0.6,1.2c-0.3,0.5-0.7,0.7-1.3,0.7c-2.4,0.1-4.7-0.4-7.1-0.4
			c-2.6-0.1-5.2-0.1-7.8,0c-1.2,0.1-2.4,0.3-3.6,0.5c-0.7,0.1-1.4,0.1-2.1,0.1c-0.4,0-0.8-0.1-1.1-0.5c-0.3-0.8-0.3-1.6-0.3-2.4
			c0.6-0.6,1.4-0.4,2.1-0.7c0.2-0.2,0.4-0.3,0.6-0.4c1.9-0.4,3.8-0.6,5.8-0.6c0.2,0,0.3,0,0.3,0c-0.4-0.1-1,0-1.6,0
			c-1.4,0.1-2.8,0-4.3,0.2c-0.3,0-0.6-0.1-1-0.1c-0.5,0.1-1,0.1-1.5,0.2c-0.4,0.1-0.8,0-0.7-0.5c0-0.2,0-0.4,0-0.6
			c-0.1-0.5,0.1-0.7,0.6-0.7c0.6,0.1,1.2-0.1,1.8-0.3c0.7-0.2,1.4-0.3,2.1,0c0.3,0.1,0.7,0.1,1,0.3c1.9,0.6,3.7,0.6,5.6,0.2
			c1.5-0.3,2.9-0.7,4.1-1.5c0.4-0.3,0.7-0.1,1,0.1C116.7,62.1,117.2,62.3,117.5,62.8z"/>
		<path class="st0" d="M157.1,59.6c1.5,1.8,2.8,3.7,3.9,5.8c-0.3,0-0.7,0.4-0.7-0.3c0-0.2-0.3-0.2-0.5-0.2c-0.8,0-1.5,0-2.3,0
			c-0.3,0-0.6,0-0.6-0.5C157,62.8,156.7,61.2,157.1,59.6z"/>
		<path class="st0" d="M100.1,66.1c0.1,0.8,0.2,1.5,0.3,2.3c0,0.8,0.4,1,1.1,0.9c0.3,0,0.6,0,0.9,0c0.5,0.1,0.9-0.2,1.1-0.6
			c1.2-0.2,2.4-0.3,3.6-0.3c-0.5,0.4-1.2,0.1-1.8,0.3c-0.2,0.1-0.5,0-0.5,0.3c0,0.3,0,0.5,0.3,0.5c0.2,0,0.3,0.2,0.3,0.4
			c-0.1,0.2-0.3,0.2-0.5,0.2c-1.6,0-3.3,0-4.9,0c-0.1,0-0.3,0-0.4-0.1c-0.3-0.2-0.2-2.1,0.1-2.3c0.3-0.2,0.2-0.5,0.1-0.8
			C99.6,66.6,99.7,66.3,100.1,66.1z"/>
		<path class="st6" d="M161.4,32.8c1.1,0.7,2.1,1.6,3,2.6c0,0.2-0.1,0.4-0.3,0.5c-0.2,0.3-0.5,0.4-0.8,0.2c-0.9-0.7-1.7-1.5-2.6-2.2
			c-0.2-0.2-0.3-0.4-0.5-0.6c-0.3-0.7-0.1-0.8,0.8-0.8l0,0C161,32.7,161.1,32.9,161.4,32.8z"/>
		<path class="st0" d="M125.9,48c-0.8-0.5-1.7-0.8-2.7-1c0.3-0.3-0.4-0.1-0.2-0.4c0.1-0.1,0.3,0,0.4,0c1.2-0.2,2.5-0.1,3.7-0.2
			c0.6,0,0.8,0.2,0.7,0.7c0,0.9,0,1.7,0,2.7c-0.7-0.3-0.4-1.1-1-1.3c0,0,0-0.1,0-0.1c0.3-0.2,0.6-0.4,0.2-0.7
			C126.7,47.7,126.3,47.6,125.9,48z"/>
		<path class="st0" d="M65.2,62.3c0.3-0.5,0.6-1.1,1.1-1.5c0.3,0.4-0.4,0.4-0.2,0.7c0.1,0.2,0.3,0,0.5,0c0.4,0.1,0.8,0.1,0.7,0.7
			c-0.1,0.7,0,1.4,0,2c0,0.5-0.2,0.6-0.6,0.6c-0.5,0-0.7-0.1-0.7-0.6c0-0.5,0-0.9,0-1.4C66,62.3,65.8,62.1,65.2,62.3z"/>
		<path class="st0" d="M123.6,66.2c0-0.6,0-1.2,0-1.8c0.4,0.1,0.2,0.4,0.2,0.7c1.1-0.5,1.4-0.3,1.4,0.9c0,1.2,0,2.4,0,3.6
			c0,0.2,0,0.5-0.3,0.5c-0.4,0-0.3-0.3-0.3-0.5c0-0.7-0.1-1.4,0-2.1C124.7,66.7,124.6,66.1,123.6,66.2z"/>
		<path class="st2" d="M42.5,57.5c0.5-1,1-1.9,1.6-2.8c0.3,0,0.6,0.2,0.9,0c0.3-0.1,0.4,0.1,0.4,0.3c-0.6,1-1.1,2-1.7,3
			C43.6,57.4,42.9,57.9,42.5,57.5z"/>
		<path class="st2" d="M123.3,68.2c0.3-0.7,0-0.8-0.7-1c-2.3-0.5-4.6-0.8-7-0.9c2.3-0.2,4.7-0.2,7,0.2c0.3,0.1,0.8,0.3,0.9-0.3
			c0,0.5,0.3,1,0.3,1.5C123.9,68.2,123.7,68.2,123.3,68.2z"/>
		<path class="st7" d="M102.2,64.6c2.4-0.4,4.8-0.4,7.2-0.1c-2.4,0.1-4.8,0.5-7.2,0.9c-0.2-0.4-0.6-0.2-0.8-0.4
			C101.6,64.8,102.2,65.1,102.2,64.6z"/>
		<path class="st0" d="M69.8,56.4c0.4-0.5,0.8-1,1.3-1.4c0,0.6,0.3,0.9,0.9,0.8c0.6-0.1,0.6,0.3,0.6,0.7c0,0.5-0.2,0.7-0.6,0.6
			c-0.6-0.1-1.3,0.3-1.5-0.6C70.4,56.1,70,56.4,69.8,56.4z"/>
		<path class="st0" d="M147.4,49.7c0.6,0.4,1.1,0.9,1.6,1.4c-0.2,0-0.4-0.1-0.5-0.1c0,0.3,0.6,0.3,0.4,0.6c-0.1,0.3-0.5,0.1-0.7,0.1
			c-1.2,0-1.2,0-1.1-1.6c0.3-0.1,0.3,0.3,0.6,0.2C147.5,50.1,147.5,49.9,147.4,49.7z"/>
		<path class="st0" d="M126.8,62.3c0.2-0.2,0.5-0.4,0.8-0.5c0.2,0.2,0.4,0.3,0.4,0.7c-0.1,0.6,0,1.3,0,2c0,0.2,0,0.4-0.3,0.4
			c-0.3,0-0.4-0.2-0.4-0.4c0-0.5,0-1.1,0-1.6C127.3,62.5,127.2,62.3,126.8,62.3z"/>
		<path class="st0" d="M64.6,22.4c0.1,0.1,0.4,0.2,0.3,0.4c-0.4,0.7-0.1,1.4-0.2,2.1c0,0.2,0.1,0.5-0.3,0.6c-0.4,0-0.3-0.3-0.3-0.5
			c-0.1-0.6,0.1-1.1-0.2-1.7C63.8,23.1,64.3,22.7,64.6,22.4z"/>
		<path class="st0" d="M75.1,51.2c0.1-0.2,0.2-0.2,0.3-0.3c0.6,0.3,1.3,0.1,1.9,0.2c0.2,0,0.5,0,0.5,0.3c0,0.4-0.3,0.3-0.5,0.3
			c-0.5,0-1,0-1.5,0C75.4,51.8,75.2,51.6,75.1,51.2z"/>
		<path class="st7" d="M117.5,62.8c-0.5-0.2-1-0.6-1.3-1c0.3,0,0.3-0.2,0.3-0.5c0-0.4,0.2-0.6,0.5-0.7c0.1,0.1,0.2,0.2,0.3,0.3
			c0.3,0.5-0.3,1.1,0.3,1.5C117.7,62.5,117.6,62.7,117.5,62.8z"/>
		<path class="st0" d="M116,8.2c-0.6,0.3-0.7,0.5-0.3,0.7c0.2,0.1,0.5,0.2,0.4,0.5c-0.1,0.3-0.4,0.2-0.6,0.2c-0.3,0-0.6,0.1-0.7-0.3
			c-0.1-0.3-0.2-0.8,0.1-1C115.1,8,115.5,7.9,116,8.2z"/>
		<path class="st0" d="M88.2,42.7c0.2-0.2,0.4-0.3,0.7-0.3c0.2,0.3,0.1,0.9,0.7,0.9c0.1,0,0.2,0.2,0.1,0.3c0,0.2-0.1,0.3-0.3,0.2
			c-0.4-0.1-1.2,0.3-1-0.7C88.5,43,88.3,42.8,88.2,42.7z"/>
		<path class="st7" d="M129.4,40.1c0.5,0.1,0.9,0.2,1.3,0.4c-0.1,0.2-0.1,0.5,0.1,0.7C129.2,41.3,129.2,41.3,129.4,40.1z"/>
		<path class="st0" d="M171.2,39.2c-0.2-0.1-0.4-0.3-0.5-0.5c0.5-0.1,1-0.1,1.5-0.2c0.2,0,0.5,0,0.5,0.3c0,0.3-0.2,0.3-0.4,0.4
			C171.9,39.4,171.6,39.2,171.2,39.2z"/>
		<path class="st8" d="M100.6,58.5c-0.3-0.5-0.3-1-0.3-1.5c0-0.2,0-0.2,0.2-0.1c0.2,0.4,0.3,0.9,0.5,1.3
			C100.7,58.2,100.6,58.4,100.6,58.5z"/>
		<path class="st3" d="M163.1,36.1c0.3,0.1,0.6-0.1,0.8-0.2c0.5,0.5-0.4,0.3-0.3,0.6C163.5,36.4,163.3,36.3,163.1,36.1z"/>
		<path class="st9" d="M105.5,62.9c-0.4,0-0.7-0.1-1-0.3C104.9,62.5,105.3,62.5,105.5,62.9z"/>
		<path class="st9" d="M176.5,48.9c0.3,0.2,0.5,0.5,0.6,0.9C176.6,49.7,176.6,49.3,176.5,48.9z"/>
		<path class="st9" d="M175.6,48.3c-0.1,0.2-0.2,0.4-0.4,0.3c-0.2-0.2,0-0.2,0.1-0.3C175.4,48.3,175.5,48.4,175.6,48.3z"/>
		<path class="st10" d="M124.8,53.1c-0.2,0.1-0.4,0.3-0.5,0.1c0,0,0.2-0.2,0.4-0.2C124.7,53,124.8,53,124.8,53.1z"/>
		<path class="st11" d="M134.7,169.1c-3.2,1.1-6.4,1.8-9.7,2.3c-7.4,1.2-14.9,1.4-22.4,0.5c-3.5-0.4-7-1.1-10.4-2
			c-0.1-0.3-0.1-0.7,0.1-1c0.2-0.2,0.4-0.5,0.7-0.3l0,0c0.2,0.2,0.4,0.1,0.7,0.2c2.1,0.4,4.3,0.9,6.4,1.3c5.5,0.9,11.1,1.1,16.6,0.8
			c5.7-0.3,11.2-1.3,16.7-2.9c0.1,0,0.1,0,0.2,0c0.1-0.1,0.2-0.1,0.3-0.1c0.9,0,0.9,0,0.8,0.9C134.7,168.9,134.7,169,134.7,169.1z"
			/>
		<path class="st11" d="M181.5,127.7c0.6,0,1.2-0.2,1.5-0.7c0.1-0.2,0.3-0.1,0.4-0.1c-1.4,3.3-3.2,6.5-5.2,9.5
			c-4.8,7.5-10.7,14-17.7,19.5c-0.1,0.1-0.2,0.1-0.3,0.2c-0.1,0-0.2,0.1-0.3,0.1c-0.5,0-1.1,0-1.3-0.4c-0.2-0.3,0.5-0.4,0.7-0.7
			c0.1-0.1,0.1-0.2,0.2-0.3c2.5-2.1,5-4.1,7.2-6.4c5.8-5.8,10.6-12.4,14.2-19.7C181.1,128.3,181.3,128,181.5,127.7z"/>
		<path d="M106.4,158.6c-0.6,0.8-1.1,1.7-1.7,2.5c-0.2,0.3-0.3,0.5-0.7,0.4c-0.4,0-0.4-0.3-0.5-0.6c-0.4-1-0.7-2-1.3-2.9
			c-0.2,1.7-0.4,3.5-0.6,5.2c-0.1,0.8-0.3,1.6,0,2.4c0.1,0.4-0.1,0.4-0.4,0.4c-0.8-0.1-1.5-0.2-2.2-0.3c0.8-3,0.9-6.1,1.3-9.2
			c0.1-0.8,0.3-1.6,0-2.4c-0.1-0.3,0.1-0.4,0.3-0.3c0.7,0.1,1.4,0.2,2.1,0.2c0.3,0,0.4,0.3,0.5,0.5c0.4,1,0.8,2,1.2,3.1
			c0.7-1,1.3-1.8,1.8-2.7c0.2-0.3,0.4-0.5,0.9-0.4c0.7,0.1,1.5,0.2,2.4,0.3c-0.8,1.2-0.6,2.5-0.9,3.7c-0.1,0.4-0.1,0.7-0.6,0.3
			c-0.3-0.3-0.8-0.2-1.1-0.3C106.7,158.5,106.5,158.5,106.4,158.6z"/>
		<path d="M133.2,151.2c-0.3,1.3,0.2,2.3,0.5,3.3c0.5,1.8,1.1,3.7,1.6,5.5c0.4,1.3,0,2.4-1,3.3c-1,0.8-2.2,1-3.4,0.4
			c-0.9-0.4-1.4-1.2-1.7-2.1c-0.6-2-1.2-4-1.8-6c-0.2-0.8-0.4-1.7-1.2-2.3c1-0.3,1.9-0.6,2.9-0.9c-0.2,1.1,0.2,2,0.4,3
			c0.6,1.9,1.1,3.7,1.7,5.6c0.2,0.8,0.8,1.1,1.4,0.9c0.6-0.2,0.9-0.8,0.7-1.5c-0.7-2.3-1.4-4.7-2.1-7c0-0.2-0.1-0.3-0.2-0.5
			c-0.5-0.9-0.5-0.9,0.5-1.2C132,151.5,132.6,151.4,133.2,151.2z"/>
		<path d="M52,131.9c2.1-1.5,4.2-3,6.3-4.5c0.2-0.2,0.5-0.3,0.6-0.5c0.7-0.8,0.7-0.8,1.3,0.1c0.5,0.7,1,1.4,1.5,2.1
			c0.9,1.3,0.6,2.7-0.6,3.6c-0.7,0.5-1.4,1-2.1,1.5c-1.3,0.9-2.7,0.7-3.7-0.6c-0.7-1-0.7-1-1.7-0.3c-0.4,0.3-0.8,0.5-1.2,0.8
			c-0.2,0-0.4-0.2-0.6-0.3c-0.7-0.4-0.8-0.7-0.2-1.3C51.8,132.2,51.9,132,52,131.9z"/>
		<path d="M71.2,139.5c0.1,0.1,0.3,0.3,0.4,0.4c0.2,0.2,0.3,0.4,0.6,0.5c0.9,0.7,1.8,1.5,2.8,2.2c0.3,0.2,0.3,0.4,0.1,0.7
			c-0.4,0.4-0.6,1.1-1.1,1.2c-0.5,0.2-0.7-0.6-1.1-0.9c-1.5-1.2-1.5-1.2-2.7,0.3c0,0,0,0-0.1,0.1c-1,1.2-1,1.2,0.4,1.9
			c0.4,0.2,0.4,0.3,0.1,0.6c-0.5,0.5-0.9,1.1-1.3,1.6c-0.1,0-0.1-0.1-0.1-0.1c-1.6-1.9-1.2-1.4-2.5,0.1c-0.3,0.3-0.2,0.4,0.1,0.6
			c0.7,0.5,1.2,1.1,2,1.4c0.3,0.1,0.5,0.3,0.2,0.6c-1.1,1.5-1.1,1.5-2.6,0.3c-0.7-0.5-1.3-1.1-1.9-1.6c-0.1-0.5-0.4-0.9-0.6-1.3
			c0.9-0.6,1.4-1.6,2.1-2.4c1.3-1.5,2.5-3.1,3.8-4.6c0.4-0.4,0.7-0.9,0.9-1.4C70.8,139.4,70.9,139.4,71.2,139.5z"/>
		<path d="M92.4,169c0,0.3,0,0.7-0.2,1c-6.1-1.6-11.9-3.9-17.5-6.9c-2.1-1.2-4.2-2.4-6.2-3.8c-0.5-0.7-0.4-1,0.4-1.5
			c2.5,1.6,5,3.2,7.7,4.5c5,2.6,10.2,4.6,15.7,6.1c0,0,0.1,0.1,0.1,0.1C92.6,168.6,92.6,168.8,92.4,169z"/>
		<path d="M47.7,138.9c0.2-0.5,0.7-0.4,0.9-0.2c0.4,0.5,0.4,0.1,0.6-0.1c2.3,3.1,4.7,6,7.4,8.8c0,0.1,0,0.1,0,0.2
			c-0.5,0.8-0.4,1,0.5,1.4c0.2-0.4-0.5-0.7-0.1-1c3.1,3.1,6.5,5.9,10,8.6c0,0.2,0.4,0.5,0,0.6c-0.4,0.1-0.4,0.5-0.7,0.7
			c-4.5-3.1-8.6-6.8-12.3-10.9c-0.7-0.8-1.4-1.5-2-2.4c-0.1-0.3-0.3-0.4-0.5-0.5l0,0c-0.1-0.1-0.1-0.1-0.1-0.2c0-0.1,0-0.2,0-0.3
			c0,0.1,0,0.2-0.1,0.3c-0.2-0.1-0.3-0.2-0.3-0.4c-0.1-0.2-0.3-0.4-0.4-0.5C49.7,141.7,48.6,140.3,47.7,138.9z"/>
		<path d="M141.9,155.8c-0.4,0.2-0.6,0.5-0.4,1c0.3,1,0.3,2.2,0.8,3.2c0.1,0.3,0.1,0.4-0.2,0.6c-0.6,0.3-1.2,0.6-1.8,0.9
			c-0.2,0.1-0.4,0.1-0.5,0c-0.2-0.1,0-0.3,0.1-0.4c0.1-0.4,0.2-0.7,0.1-1.1c-0.6-3-1.3-6.1-1.9-9.1c-0.1-0.5-0.7-1-0.3-1.4
			c0.3-0.3,0.9-0.4,1.3-0.7c0.4-0.2,0.8-0.6,1.3-0.5c0.5,0,0.5,0.7,0.8,1c0.3,0.3,0.5,0.6,0.7,1c0.4,0.6,0.3,1.2,0.2,1.9
			c0,0.4-0.2,0.7-0.6,0.8c-0.1,0-0.2,0-0.2,0c-0.3-0.1-0.3,0-0.2,0.3c0,0.8,0.6,0.4,1,0.5C142.9,154,142.9,154.9,141.9,155.8z"/>
		<path d="M125.1,159.8c0.2,1,0.4,2,0.5,3c0.1,1.3-0.5,2.3-1.5,3c0.1,0.1,0.1,0.2,0.2,0.2c1,0.1,0.9,0.9,1,1.6
			c0.2,0.8-0.2,0.8-0.8,0.7c-1.1-0.2-1.9-0.7-2.4-1.7c-0.2-0.3-0.4-0.5-0.8-0.7c-1.1-0.4-1.9-1.2-2.1-2.4c-0.3-2-0.6-4.1-0.9-6.1
			c-0.1-0.7,0-1.4,0.4-1.9c0.6,0,0.6,0.5,0.7,0.9c0.1,0.5,0,0.9,0,1.4c0,0.2-0.1,0.5,0.2,0.5c0.3,0,0.2-0.3,0.2-0.5
			c0-0.2-0.1-0.5,0.1-0.6c0.3-0.1,0.4,0.1,0.6,0.3c0.4,0.9,0.4,1.9,0.5,2.8c0.1,0.8,0.3,1.6,0.4,2.4c0.2,1.1,0.7,1.3,1.7,0.7
			c0.3-0.3,0.4-0.7,0.3-1.1c-0.1-0.6,0-1.2,0.6-1.5c0.4-0.2,0.3-0.5,0.3-0.9C124.5,159.4,124.8,159.5,125.1,159.8z"/>
		<path d="M63.4,141.5c-0.8-0.1-1.1,0.3-1.3,1c-0.4,1.2-1.1,2.3-1.3,3.8c-0.9-0.9-1.6-1.7-2.5-2.6c1.5-0.2,1.5-1.5,2-2.4
			c0.2-0.4,0.7-1,0.3-1.3c-0.4-0.3-0.7,0.4-1,0.7c-0.7,0.6-1.5,1.2-1.8,2.2c-0.5-0.4-0.9-0.8-1.3-1.3c0.2-0.3,0.2-0.3,0.7-0.2
			c0-1.1,0.6-1.8,1.2-2.6c1.1-1,2.1-2,3.2-3c0.5-0.2,0.6,0.2,0.6,0.5c0.1,0.4,0.3,0.7,0.5,1c0,0,0,0.1,0,0.1c-0.7,0.9,0,1.4,0.6,1.8
			C63.7,140,63.8,140.8,63.4,141.5z"/>
		<path d="M92.5,162.1c0.7-0.2,1-0.6,1.1-1.2c0.6-2.3,1.3-4.6,2-6.8c0.1-0.1,0.1-0.2,0.2-0.3c0.4-0.2,1.8-0.2,2.1,0.1
			c-0.5,0.9-0.7,2-1,3c-0.5,1.7-1,3.4-1.5,5.1c-0.4,1.2-1.3,2-2.6,2.1c-1.3,0.2-2.4-0.3-3-1.4c0-0.5,0.4-0.4,0.6-0.4
			C91.2,162.2,91.8,162,92.5,162.1z"/>
		<path d="M155.3,151.2c0.1,0.2,0.2,0.3,0.3,0.5c0.1,0.2,0.3,0.5,0.2,0.8c-1.4,1.2-3,2-4.4,3.1c-0.9-2.4-2.6-4.2-3.8-6.3
			c-0.2-0.6-0.1-1.1,0-1.7c0.1-0.5,0.3-0.8,0.9-0.5c1.1,1.6,2.2,3.2,3.3,4.9c0.3,0.5,0.6,0.6,1.1,0.2c0.5-0.4,1.2-0.7,1.6-1.2
			c0.1-0.2,0.4-0.2,0.6-0.2C155,150.9,155.1,151.1,155.3,151.2z"/>
		<path class="st11" d="M85.9,153.2c0.2-0.5,0.4-1.1,0.6-1.6c0.3-0.6,0.6-1.3,0.4-2.1c0.9,0.2,1.6,0.6,2.4,0.9
			c0.4,0.1,0.2,0.3,0,0.5c-0.5,0.4-0.7,1-0.9,1.5c-1,2.4-2,4.8-3,7.1c-0.2,0.5-0.4,1-0.4,1.6c0,0.4-0.1,0.5-0.5,0.3
			c-0.7-0.3-1.4-0.6-2.2-0.9c1.4-1.6,1.7-3.7,2.7-5.4c0.2-0.2,0.2-0.9,0.8-0.3c0.2,0.2,0.3-0.1,0.3-0.3
			C86.2,154,86.1,153.6,85.9,153.2z"/>
		<path class="st11" d="M165.1,130.3c-0.6-0.7-0.8-1.6-1.7-2.1c-0.5-0.2,0.2-0.5,0.3-0.7c0.1,0,0.2-0.1,0.2,0
			c1.1,0.4,1.1,0.4,1.7-0.3c0.7,1.1,1.4,2.3,2,3.5c-0.1,0.4-0.1,0.4-0.6,0c0.1,0.4,0.1,0.8,0,1.2c0,0.5,0.1,0.8,0.7,0.7
			c0.5-0.1,0.9-0.2,1.4-0.2c0.6,0.4,1.1,0.8,1.7,1.2c0.7,0.5,1.3,1,2.3,1.1c-0.6,0.8-1.1,1.5-1.7,2.3c-1.1-1.5-2.7-2.3-4.1-3.4
			c-0.8-0.6-1.8-0.5-2.7-0.7c-0.5-0.2-1.1-0.2-1.6-0.4c0.4-0.9,1-0.9,2.1-0.2C165.1,131.6,165.6,130.9,165.1,130.3z"/>
		<path class="st12" d="M80.5,151c-0.8,0.5-1.7,1.1-2.5,1.6c-0.6,0.3-1,0.1-1-0.6c0-0.9,0.1-1.8,0.2-2.7c0.3-0.1,0.2-0.5,0.3-0.7
			c0.1-0.3,0.1-0.5-0.3-0.4c-0.6,0.1-0.8-0.3-0.8-0.8c0-0.4-0.1-0.8-0.3-1.2c0.3-0.7,0.8-1.3,0.8-2.2c0.9,0.4,1.6,0.9,2.4,1.3
			c0.3,0.2,0.1,0.4,0.1,0.7c0,1-0.1,2.1-0.1,3.1c0.3,0.1,0.4-0.2,0.6-0.2c0.2,0.3,0,0.5-0.1,0.7c-0.4,0.6-0.3,0.7,0.4,0.8
			c0.2,0,0.4,0,0.4,0.2C80.6,150.8,80.6,150.9,80.5,151z"/>
		<path class="st11" d="M89.5,159.9c0.6-2.3,1.3-4.5,1.9-6.8c0.1-0.3,0.2-0.5,0.2-0.8c0-1,0-1,1-0.7c0.5,0.2,1.1,0.3,1.6,0.5
			c-1.2,2.1-1.5,4.4-2.2,6.6c-0.1,0.3-0.2,0.5-0.3,0.8c-0.3,0.2-0.3,0.6-0.5,0.8c-0.3,0.4-0.8,0.4-1.2,0.3
			C89.6,160.5,89.4,160.3,89.5,159.9z"/>
		<path class="st11" d="M165.1,144.4c-0.2,0.2-0.3,0.4-0.6,0.6c-0.2-0.9-0.9-1.4-1.6-2c-1.7-1.6-3.4-3.3-5-4.9
			c-0.1-0.1-0.4-0.1-0.3-0.4c0.1-0.3,0.3-0.5,0.5-0.5c0.6,0,1.1-0.2,1.7-0.2c0.3,0.2,0.5,0.4,0.7,0.6c0.1,0.4,0.5,0.5,0.8,0.7
			c1.4,1.3,2.8,2.7,4.2,4.1C165.1,143.1,164.8,143.7,165.1,144.4z"/>
		<path class="st12" d="M62.7,137.6c-0.4-0.3-0.8-0.5-0.7-1.1c0.1-0.3-0.1-0.5-0.4-0.6c0.4-0.4,0.9-0.9,1.3-1.3
			c0.6-0.5,1.2-1.1,1.5-2c1,1.1,2.1,2.1,3,3.3c0.7,0.9,0.5,2.2-0.3,3c-0.3,0.3-0.6,0.5-0.9,0.8c-0.1-0.4-0.2-0.9-0.3-1.3
			c-0.1-0.3-0.3-0.5-0.5-0.7c-0.1-0.2-0.1-0.5-0.2-0.7c0-0.3-0.2-0.5-0.4-0.6c-0.3-0.1-0.4,0.2-0.6,0.3
			C63.7,137,63.4,137.5,62.7,137.6z"/>
		<path class="st12" d="M134.7,169.1c-0.2-0.3-0.2-0.6,0.1-1c-0.4-0.1-0.8-0.1-1.1-0.2c3.1-1.1,6.3-2.1,9.3-3.4
			c0.5-0.2,1-0.4,1.6-0.7c0.3,0.4,1.1,0.4,0.9,1.2c-2.1,1.1-4.4,2-6.6,2.8C137.4,168.3,136.1,168.8,134.7,169.1z"/>
		<path class="st12" d="M120.5,157.5c-0.1-0.1-0.3-0.2-0.4-0.2c0.3,1.2,0.3,1.2-0.7,1.3c0-0.7,0-1.3,0-2c0-0.4-0.1-0.8-0.5-1.1
			c0.4-0.8,1-1.3,1.8-1.5c0.1,0,0.2,0.1,0.2,0.1c0.1,0.3,0,0.8,0.6,0.8c0.6-0.1,1.4,0.4,1.9-0.5c0.7,0.4,1.2,1.1,1.3,1.9
			c0.2,1.1,0.3,2.3,0.5,3.5c-0.2,0-0.6-0.3-0.4,0.3c0.1,0.5,0.1,0.9-0.6,1c-0.5,0.1-0.6,0.8-0.4,1.1c0.2,0.6,0,0.9-0.3,1.3
			c-0.3-0.7-0.2-1.4-0.3-2.2c0.4-0.7,0.7-1.4,0.6-2.2c0-0.5,0.1-1-0.5-1.3c-0.1-0.1-0.1-0.2-0.1-0.4c-0.1-0.4-0.2,0.2-0.3,0
			c-0.3-0.1-0.3-0.3-0.4-0.6c-0.1-0.4-0.4-0.7-0.8-0.7c-0.5,0-0.7,0.3-0.8,0.7C120.7,157.1,120.7,157.3,120.5,157.5z"/>
		<path class="st11" d="M157.3,148.4c-2.2-2.3-3.9-5.1-6.4-7.2c0.6-0.5,1.2-1,1.8-1.5c0.1-0.1,0.3-0.3,0.4,0c0.6,1.7,2,2.7,3,4.1
			c0.2,0.2,0.3,0.4,0.5,0.7c0.1,0.2,0.1,0.4,0,0.5c0,0.2-0.2,0.4-0.1,0.5c0.8,0.6,0.4,1.6,0.9,2.3
			C157.7,148,157.8,148.3,157.3,148.4z"/>
		<path class="st11" d="M145.4,165.1c-0.2-0.4-0.4-0.8-1-0.9c0-0.1,0.1-0.2,0.1-0.3c3.3-1.6,6.4-3.4,9.5-5.3
			c0.3,0.4,0.5,0.8,0.1,1.3c-0.2,0.2-0.4,0.5-0.6,0.7C151,162.3,148.3,163.8,145.4,165.1z"/>
		<path class="st11" d="M108.3,161c-0.1,0.9-0.2,1.8-0.3,2.8c-0.1,1-0.4,2,0.1,3.1c-1-0.1-1.9-0.2-2.8-0.3c0.9-2.4,0.8-4.9,1.2-7.4
			c0.1-0.1,0-0.4,0.2-0.4C108,159.2,108.4,159.7,108.3,161z"/>
		<path class="st11" d="M80.5,150.7c-0.2-0.3-0.6,0.1-0.9-0.1c-0.6-0.3-0.5-0.6-0.1-0.9c0.2-0.2,0.4-0.4,0.4-0.8
			c0.2-0.1,0.3-0.2,0.5-0.3c2.3-1.5,2.3-1.5,4.7,0.1c-0.8,0.5-1.2,1.3-1.7,2c-0.3,0.2-0.6,0.2-0.9,0.1c-0.5-0.1-1-0.2-1.5,0
			C80.8,150.9,80.6,150.8,80.5,150.7z"/>
		<path class="st11" d="M81.3,154.2c-0.4,0.8-0.9,1.6-1.3,2.4c-0.4,0.8-1,1.5-1,2.6c-0.9-0.5-1.7-1-2.6-1.5c0.8-0.5,1.2-1.3,1.7-2
			c0.3-0.3,0.6-0.7,0.7-1.2c0.2-0.5,0.5-1,0.9-1.5C80.9,152.6,81.5,153,81.3,154.2z"/>
		<path class="st11" d="M76.1,146.3c0.7,0.1,0.5,0.6,0.5,1c0,0.5,0,1,0.8,0.7c0.4-0.2,0.6,0.1,0.5,0.5c-0.1,0.3-0.3,0.6-0.5,0.9
			c0,0-0.1,0-0.1,0c0,0,0,0-0.1-0.1c-0.1-0.6-0.1-0.6-0.3-0.4c-0.1,0-0.2,0-0.2,0c-0.4-0.1-0.9-0.3-1.1,0c-0.3,0.4-0.2,1.1,0.1,1.4
			c0.2,0.3,0.1,0.5,0,0.7c-0.5,1-1,1.9-1.6,2.8c-0.4,0.3-0.8,0.3-1.2,0.1c-0.3-0.1-0.4-0.2-0.4-0.5c0.1-0.5,0.1-1.1,0.5-1.4
			c0.6-0.5,0.7-1.1,0.8-1.7C74.4,149,75.2,147.6,76.1,146.3z"/>
		<path class="st13" d="M144.7,153.7c0.5,0.6,1,1.2,1.5,1.8c0.6,0.8,1.2,1.6,2.4,1.8c-1,0.5-1.8,0.9-2.6,1.3
			c-0.2,0.1-0.4,0.1-0.5-0.2c-0.5-1-1.4-1.7-2-2.7c0-0.1-0.1-0.1,0-0.2C143.9,154.9,144.2,154.2,144.7,153.7z"/>
		<path class="st12" d="M153.6,160.6c0.1-0.3,0-0.7,0.5-0.9c0.4-0.2-0.1-0.7,0-1.1c1.8-1.3,3.6-2.6,5.4-3.9c0.1,0.7-0.7,0.5-0.9,1
			c0.5,0.1,1,0.2,1.6,0.3C158.1,157.7,155.9,159.3,153.6,160.6z"/>
		<path class="st12" d="M157.3,148.4c0.2-0.1,0.4-0.3,0.1-0.5c-0.4-0.3-0.5-0.8-0.5-1.2c0-0.4,0-0.7-0.5-0.8
			c-0.4-0.1-0.2-0.5-0.2-0.8c0-0.2,0.3-0.4,0.3-0.7c0.7,0.8,1.3,1.6,2,2.3c0.6,0.7,1.1,1.5,2.1,1.8c-0.8,0.6-1.5,1.2-2.3,1.9
			C158.3,149.6,157.7,149,157.3,148.4z"/>
		<path class="st14" d="M144.7,153.7c-0.2,0.2-0.2,0.4-0.2,0.7c0,0.3,0,0.8-0.6,0.8c-0.3,0-0.2,0.4-0.3,0.6c-0.6-0.8-1.1,0-1.6,0.1
			c0-0.4,0.5-0.4,0.5-0.8c0-0.6,0-1.1-0.7-1.4c-0.4-0.2-0.7-0.4-0.6-0.9c0.6-0.3,0.9-1,0.8-1.9c0-0.2-0.1-0.4-0.1-0.6
			C142.7,151.3,143.7,152.5,144.7,153.7z"/>
		<path class="st14" d="M165.1,130.3c0.3,0.3,0.5,2,0.3,2.3c-0.1,0.2-0.4,0.2-0.5,0.1c-0.6-1.1-1.2-0.6-1.8-0.1
			c-1-0.1-1.9-0.5-3-0.4c0.5-0.7,1.1-1.5,1.6-2.2c0.2-0.3,0.3-0.2,0.5,0c0.8,0.8,1.9,0.6,3,0.9C165.2,130.6,165.1,130.5,165.1,130.3
			z"/>
		<path class="st14" d="M148.4,147.1c-0.6,0-0.8,0.3-0.7,0.8c0,0.5,0,1-0.2,1.4c-0.3-0.5-0.7-1-1-1.5c-0.5-0.8-1-1.7-2-2.1
			c0.8-0.6,1.6-1.1,2.4-1.6C147,145.3,147.9,146.1,148.4,147.1z"/>
		<path class="st14" d="M81.3,154.2c0-1.2-0.9-1.1-1.6-1.2c0.3-0.6,0.6-1.2,1-1.8c0.1-0.2,0.1-0.4,0.3-0.5c0.4-0.6,1-0.2,1.5-0.1
			c0.3,0,0.6,0.1,0.9,0.1C82.7,151.9,82.1,153.1,81.3,154.2z"/>
		<path class="st14" d="M159.7,137c-0.5,0.2-0.9,0.4-1.5,0.3c-0.4,0-0.8,0.2-0.3,0.7c-0.4-0.1-0.5,0.4-0.8,0.5
			c-0.2-0.1-0.3-0.3-0.3-0.5c0-0.6-0.2-1.1-0.4-1.7c0.3-0.4,0.6-0.8,1-1.1c0.6-0.3,0.8,0.1,1.1,0.5c0.3-0.3,0.6-0.6,1.1-0.4
			c0.1,0,0.2,0.1,0.2,0.2c0,0.1-0.1,0.2-0.1,0.2C159.2,136.2,159.2,136.6,159.7,137z"/>
		<path class="st6" d="M159.9,135.6c-0.3,0.1-0.9-0.5-1,0.4c0,0.1-0.6,0.2-0.6-0.1c-0.1-0.6-0.5-0.6-0.9-0.7
			c0.2-0.2,0.4-0.4,0.6-0.7c1.6-1.7,1.6-1.7,3.2,0.2C160.7,135,160.3,135.3,159.9,135.6z"/>
		<path class="st7" d="M73.7,150.4c0.1,0.5,0.3,1-0.1,1.4c-0.4,0.3-0.6,0.5-0.7,1.1c-0.2,1.1-0.3,1.1,0.8,1c0.1,0,0.2,0,0.3,0
			c-0.3,0.6-0.6,1.2-0.6,1.9c-0.5-0.1-0.9-0.4-1.3-0.6c-0.4-0.2-0.8-0.5-1.3-0.7C72.3,153.3,72.7,151.7,73.7,150.4z"/>
		<path class="st6" d="M156.4,136.3c0.4,0.3,0.6,0.6,0.5,1.1c-0.1,0.4,0.1,0.7,0.2,1c-0.4,0.4-0.7,0.9-0.9,1.5c-0.1,0-0.1,0-0.2,0
			C154.2,138.3,154.2,138.2,156.4,136.3z"/>
		<path class="st2" d="M89.5,159.9c0,0.4,0.3,0.5,0.7,0.5c0.3,0,0.7,0.1,0.9-0.4c0.1-0.3,0.2-0.6,0.7-0.6c-0.1,0.3-0.1,0.5-0.2,0.8
			c-0.3,1.1-0.1,1.5,1,1.8c-0.5,0.3-1.1,0.3-1.7,0.3c-0.3,0-0.7-0.1-1,0.2C89.3,161.8,89.2,160.9,89.5,159.9z"/>
		<path class="st6" d="M65.3,137.7c0.4-0.1,0.6-0.1,0.7,0.4c0,0.5,0.6,1,0.2,1.6c-0.3,0.3-0.6,0.6-0.9,0.9c-0.7-0.3-1.5-0.3-1.6-1.3
			C63.9,138.5,64.6,138,65.3,137.7z"/>
		<path class="st7" d="M52,131.9c0,0.1,0,0.2,0,0.3c-0.1,0.6,0,1.1,0.4,1.5c0.1,0.1,0.1,0.1,0.1,0.2c-0.4,0.3-0.7,0.8-1,1.3
			c-0.5-0.7-1-1.4-1.4-2c-0.1-0.2-0.2-0.4,0.1-0.5C50.9,132.7,51.4,132.2,52,131.9z"/>
		<path class="st14" d="M169.2,132.4c-0.6,0.6-1.5,0.2-2.1,0.6c-0.2,0.1-0.2-0.3-0.2-0.5c0-0.7,0-1.3,0-1.9c0.3-0.1,0.5,0.6,0.8,0.2
			C168,131.3,168.5,132,169.2,132.4z"/>
		<path class="st7" d="M66.5,157.9c0.1-0.3-0.1-0.9,0.6-0.8c0.3,0,0-0.3,0.1-0.4c0.6,0.4,1.1,0.8,1.7,1.2c-0.2,0.5-0.6,0.9-0.4,1.5
			C67.8,158.8,67.2,158.3,66.5,157.9z"/>
		<path class="st13" d="M123.3,154.4c0.2,0.5,0.1,0.8-0.5,0.7c-0.4,0-0.9,0-1.3,0c-0.6,0-1-0.1-0.7-0.8c0-0.1-0.1-0.2-0.1-0.3
			C121.6,153.6,122.5,153.8,123.3,154.4z"/>
		<path class="st7" d="M165.6,127.2c-0.4,0.3,0.1,0.6,0,0.9c-0.6-0.3-1.5,0.2-2-0.5c0.4-0.6,0.9-1.3,1.4-2
			C165.3,126.1,165.4,126.6,165.6,127.2z"/>
		<path class="st7" d="M75.6,151.1c0-0.5-0.5-0.9-0.4-1.5c0.1-0.3-0.3-0.8,0.1-0.9c0.4-0.2,0.8-0.2,1.2,0.1c0.1,0.1,0.2,0.1,0.3,0.2
			C76.5,149.7,76.1,150.4,75.6,151.1z"/>
		<path class="st14" d="M63.7,139.1c0.2,0.8,1.1,0.8,1.6,1.4c-0.5,0.6-1,1-1.9,0.9c-0.1-0.8,0.2-1.5-0.2-2.3
			C63.4,139,63.5,139,63.7,139.1z"/>
		<path class="st3" d="M97.9,153.8c-0.8,0.1-1.6-0.2-2.3,0.2c0-0.5,0-1,0-1.5c0.8,0.2,1.4,0.4,2.2,0.6
			C98.5,153.2,98.3,153.5,97.9,153.8z"/>
		<path class="st3" d="M58.4,138.9c-0.4,0.9-1.1,1.7-1,2.8c0,0.4-0.2,0.3-0.4,0.1c-0.2-0.2-0.2-0.6-0.5-0.1
			c-0.2-0.2-0.3-0.3-0.5-0.5c-0.2-0.2-0.2-0.3,0.1-0.4C57.1,140.4,57.6,139.4,58.4,138.9z"/>
		<path class="st2" d="M108.3,161c-0.1-0.2-0.2-0.4-0.1-0.7c0.1-0.2,0.1-0.4-0.2-0.5c-0.7-0.1-0.9-0.8-1.4-1c-0.1-0.1-0.1-0.2,0-0.3
			c0.6,0.1,1.3-0.3,1.6,0.6c0.1-0.2,0.2-0.3,0.3-0.4C108.6,159.4,108.5,160.2,108.3,161z"/>
		<path class="st7" d="M165.1,144.4c-0.1-0.3-0.4-0.6-0.3-1c0-0.5,0.2-0.8,0.5-1c0.4,0.2,0.8,0.4,1.2,0.6
			C166,143.5,165.6,144,165.1,144.4z"/>
		<path class="st15" d="M85.9,153.2c0.4,0.2,0.7,1.5,0.5,1.8c-0.1,0.2-0.4,0.2-0.6,0.2c-0.4,0,0.1-0.4-0.2-0.5
			c-0.3,0-0.3,0.4-0.5,0.4C85.3,154.4,85.5,153.8,85.9,153.2z"/>
		<path class="st12" d="M57.1,148c-0.1,0.3,0.2,0.6,0.4,0.8c0.2,0.4-0.1,0.4-0.2,0.4c-0.6,0.1-0.9-0.4-1.2-0.8
			c-0.2-0.2,0-0.7,0.4-0.8c0.1,0,0.1-0.1,0.2-0.2C56.8,147.7,57,147.8,57.1,148z"/>
		<path class="st16" d="M63.9,148.1c0.6,0.3,0.8,0.7,0.6,1.3c-0.4-0.3-0.8-0.6-1.2-0.9C63.4,148.3,63.7,148.2,63.9,148.1z"/>
		<path class="st16" d="M78.8,154.5c0.1,0.6-0.1,1-0.7,1.2C78.3,155.2,78.6,154.8,78.8,154.5z"/>
		<path class="st4" d="M155.7,152.5c-0.2-0.2-0.2-0.5-0.2-0.8C155.8,151.9,156.4,152.1,155.7,152.5z"/>
		<path class="st17" d="M161.1,138.4c-0.4-0.1-0.8-0.2-0.8-0.7C160.7,137.8,160.9,138.1,161.1,138.4z"/>
		<path class="st9" d="M92.4,169c0.1-0.2,0.1-0.3,0-0.5c0.2,0,0.5,0,0.7,0.2C92.8,168.8,92.6,168.9,92.4,169z"/>
		<path class="st18" d="M72.2,140.3c-0.5,0.2-0.5-0.2-0.6-0.5C71.9,139.9,72.1,140.1,72.2,140.3z"/>
		<path class="st19" d="M106.7,158.4c0,0.1,0,0.2,0,0.3c-0.1,0.1-0.1,0.2-0.2,0.3c-0.1-0.1,0-0.4-0.2-0.5
			C106.4,158.4,106.5,158.3,106.7,158.4z"/>
		<path class="st20" d="M81,150.8c-0.1,0.1-0.1,0.4-0.3,0.5c-0.1-0.1-0.1-0.1-0.2-0.2c0-0.1,0-0.2,0-0.3
			C80.7,150.7,80.8,150.7,81,150.8z"/>
		<path class="st4" d="M155.3,151.2c-0.3,0-0.5-0.1-0.3-0.5C155.2,150.8,155.3,151,155.3,151.2z"/>
		<path class="st18" d="M71.2,139.5c-0.2,0.1-0.4,0.1-0.5,0.2C70.7,139.3,70.8,139,71.2,139.5z"/>
		<path class="st9" d="M93.7,168.8c-0.3,0.2-0.5,0-0.7-0.2C93.3,168.6,93.5,168.6,93.7,168.8z"/>
		<path class="st5" d="M51.5,143.9c0-0.2,0-0.4,0-0.7c0.3,0.3,0.1,0.7,0.2,1C51.6,144.1,51.5,144,51.5,143.9z"/>
		<path class="st5" d="M50.8,143c0.3,0,0.4,0.2,0.4,0.5C51,143.3,50.9,143.1,50.8,143z"/>
		<path class="st5" d="M51.7,144.1c0.3,0,0.5,0.2,0.5,0.5C51.9,144.5,51.8,144.3,51.7,144.1z"/>
		<path d="M160.9,32.5c-0.2,0.1-0.3,0.2-0.5,0.2c-0.5,0.1-0.4,0.3-0.2,0.6c0,0.1-0.1,0.2-0.2,0.2c-1.7-1.2-3.4-2.5-5.2-3.7
			c-8.6-5.7-18-9.5-28.2-11.6c-1.9-0.4-3.8-0.6-5.7-0.9c0-0.3-0.3-0.4-0.5-0.6c-0.2-0.4-0.3-0.7,0.3-0.8c2.8,0.2,5.6,0.8,8.4,1.4
			c11.3,2.5,21.5,7.3,30.7,14.3C160.3,31.8,160.7,32,160.9,32.5z"/>
		<path d="M108,24.9c0-0.6-0.1-1.2-0.1-1.8c0-0.6-0.2-1.2-0.5-1.8c1.5,0,2.9,0,4.3,0c1.1,0,2,1,2,2.2c0.1,2.5,0.1,5,0.1,7.6
			c0,1.1-0.9,2.1-1.9,2.1c-1.4,0.1-2.8,0-4.3,0c0.1-0.3,0.3-0.7,0.4-1.1c-0.2-1,0-2-0.1-3c0-0.2,0.1-0.4,0.3-0.5
			c0.3-0.1,0.7,0,0.8-0.4c0.2-0.6,0.4-1.2,0.3-1.8c0-0.3-0.2-0.7-0.2-1c0-0.4-0.3-0.3-0.5-0.3C108.6,25,108.3,25.1,108,24.9z"/>
		<path d="M148.6,45.2c-2-0.4-2.9-2.9-1.7-4.7c1.3-1.9,2.6-3.8,4-5.6c0.4-0.6,0.8-1.2,0.9-2c0.7,0.5,1.4,1,2,1.4
			c0.3,0.2,0.2,0.4-0.1,0.5c-0.3,0.2-0.6,0.5-0.9,0.7c-0.6,0.2-0.8-0.3-1.2-0.6c0,0.8,0.1,1.4,0.3,2c-1.1,1.5-2.1,3-3.2,4.5
			c-0.5,0.8-0.5,1.4,0.1,1.8c0.6,0.4,1.2,0.2,1.7-0.6c1.1-1.5,2.2-3.1,3.3-4.6c0.4,0,0.4,0.4,0.5,0.7c0,0.5,0.2,1,0.5,1.5
			c-1,1.4-1.9,2.8-2.9,4.1c-0.7,0.9-1.7,1.3-2.8,1.1C149,45.1,148.8,45.2,148.6,45.2z"/>
		<path d="M67.5,39.9c0.6,0.7,1.3,0.9,2.1,0.7c0.9-0.1,1.8-0.3,2.8-0.3c1.5,0,3,1.2,3.3,2.6c0.3,1.4-0.5,3-1.8,3.7
			c-1.2,0.6-2.4,0.4-3.3-0.5c-0.5-0.5-0.9-1.1-1.4-1.6c0.5-0.4,1.1-0.9,1.8-1.4c0.2,0.4,0.4,0.8,0.6,1.1c0.3,0.5,0.7,0.7,1.3,0.5
			c0.5-0.2,0.9-0.5,0.9-1.1c0.1-0.6-0.3-0.9-0.8-1.1c-0.8-0.4-1.6-0.1-2.4,0c-1.6,0.2-3.1,0.3-4.3-1.1c-1-1.2-1.1-2.6-0.2-3.9
			c0.9-0.2,1-0.1,0.9,0.8c-0.1,0.8-0.1,1.5,0,2.3C67.3,40.5,67,39.9,67.5,39.9z"/>
		<path d="M60.8,50.4c0.4,0.3,0.6,0.8,0.5,1.2c-0.1,0.7,0.3,0.8,0.8,0.9c1.3,0.3,2.6,0.8,4.1,0.8c-0.2,0.5-0.5,0.8-0.9,1.2
			c-0.1,0.1-0.2,0.2-0.4,0.1c-0.7-0.2-1.3,0.1-2,0.2c-0.8-0.2-1.6-0.4-2.4-0.6c-0.4-0.1-0.7-0.2-0.6,0.4c0.1,0.3-0.2,0.3-0.3,0.6
			c0.5,0.1,1,0.3,1.4,0.6c0.2,0.1,0.1-0.1,0.2-0.1c0.6,0.4,1.1,0.9,1.8,1c0.4,0.1,0.2,0.2,0,0.4c-0.1,0.1-0.2,0.2-0.3,0.1
			c-0.6-0.5-1.3,0.1-1.9-0.1c-0.4-0.1-0.2,0.6-0.6,0.4c-1.9-1.5-3.9-3-5.8-4.6c-0.7-0.5-1.3-1.1-2.3-1.3c0.8-1,1.6-2,2.4-2.9
			c0.4,0.1,0.3,0.4,0.3,0.6c0,0.5,0,1,0,1.5c0,0.5,0.3,0.4,0.5,0.2c0.8,0,1.2,0.7,1.8,1.1c0.4,0.2,0.6,0.8,1.1,0.5
			c0.5-0.3,0.3-0.8,0.2-1.3c0-0.1-0.1-0.3,0-0.4c0.5-0.3,1.2-0.2,1.6-0.7C60.4,50.2,60.6,50.3,60.8,50.4z"/>
		<path d="M158.4,52c2.8-1.3,5.6-2.7,8.3-4c0.2-0.1,0.4-0.1,0.5-0.2c1-0.6,1-0.6,1.8,0.3c0.2,0.3,0.5,0.6,0.7,0.9
			c0.5,0.5,0.5,0.8-0.2,1.2c-0.2,0.2-0.5,0.4-0.8,0.4c-1,0.1-1.8,0.4-2.8,0.6c-0.4,0.2-0.8,0.4-1.2,0.6c-0.2,0.4-0.2,0.8-0.5,1.1
			c-0.2,0.2-0.2,0.6,0.1,0.7c0.6,0.3,0.6,0.8,0.6,1.3c0.4,0.1,0.4-0.6,0.7-0.3c0.3,0.2,0.2,0.4,0,0.7c-0.7,1-1.4,1.9-2.1,2.8
			c-0.3-0.5-0.7-0.7-1.3-0.7c-0.4,0-0.5-0.4-0.4-0.7c0.5-0.7,1-1.4,1.5-2c0.3-0.3,0.2-0.5,0-0.9c-0.5-0.7-1-1.2-2-0.6
			c-0.5-0.4-1.1-0.3-1.6-0.3c-0.4,0-0.7,0-1.1,0C158.5,52.5,158.2,52.5,158.4,52z"/>
		<path d="M162.2,44.7c-0.6,0.7-1.2,1.3-1.8,2c-0.5,0.5-1.1,0.7-1.7,0.6c-0.4,0-0.6,0.1-0.7,0.5c-0.5,1.4-1,2.9-1.3,4.4c0,0,0,0,0,0
			c-0.8-0.8-1.5-1.6-2.2-2.4c1-0.2,1.1-1.1,1.4-2c0.2-0.5,0.3-0.9,0.5-1.4c0.1-0.4,0-0.5-0.3-0.5c-0.1,0.1-0.1,0.1-0.2,0
			c0-0.7-0.7-0.4-1-0.8c-0.4-0.4-0.4-0.3-0.1-0.8c0.6-0.8,1.2-1.5,2-2.1c0.6,0.1,0.7-0.3,0.7-0.7c0.4-0.6,0.9-1.1,1.5-1.6
			c0.8-0.3,1-0.2,1.1,0.6c0,0.4,0.1,0.8,0.1,1.1c-0.2,0.8-1,1.2-1.4,1.9c-0.2,0.3-0.7,0.5-0.4,0.9c0.3,0.4,0.8,0.4,1.2,0.1
			c0.1-0.1,0.2-0.1,0.4-0.2c0.9-0.4,1-0.4,1.5,0.6c0.2-0.2,0.4-0.7,0.8-0.6C162.1,44.4,162.3,44.5,162.2,44.7z"/>
		<path d="M146.9,32.5c-1.2,2.3-2.5,4.7-3.7,7c-0.2,0.3-0.4,0.6-0.4,0.9c0,0.7-0.2,0.9-0.9,0.5c-0.5-0.3-1.2-0.4-1.5-0.9
			c-0.4-0.6,0.5-0.8,0.8-1.2c1.2-2.3,2.5-4.7,3.7-7c0.2-0.4,0.1-0.5-0.2-0.7c-0.6-0.4-1.3-0.5-1.9-0.6c0-0.1,0-0.1,0-0.2
			c0.4-0.6,0.6-1.6,1.1-1.8c0.6-0.2,1.3,0.5,1.9,0.9c1.3,0.7,2.6,1.4,3.9,2.1c0.2,0.1,0.6,0.1,0.4,0.5c-0.2,0.2-0.4,0.1-0.6,0.1
			C148.6,32.1,147.8,32.2,146.9,32.5z"/>
		<path d="M127.3,25.4c0.3,0.4,0.5,0.8,0.9,1.4c0.2-1.3,0.7-2.3,0.4-3.4c-0.1-0.4,0.1-0.4,0.4-0.4c0.7,0.2,1.5,0.3,2.2,0.5
			c-1.2,3.4-1.6,7-2.4,10.4c0,0.2,0,0.4,0,0.6c0.2,0.8-0.2,0.8-0.7,0.5c-0.3-0.1-0.6-0.1-0.8-0.2c-0.3,0-0.6,0.1-0.8-0.2
			c0-0.2-0.1-0.3,0-0.5c0.1-0.1,0.1-0.2,0.2-0.3c0.4-0.2,0.1-0.6,0.3-0.9c0.1-0.8,0.2-1.6,0.4-2.3c0.2-0.6,0-1-0.2-1.5
			c-0.7-1.2-1.3-2.4-2-3.6c-0.1-0.3,0.1-0.4,0.3-0.6c0.1,0,0.1-0.1,0.2-0.1C126.1,25.1,126.7,25.2,127.3,25.4z"/>
		<path d="M136.1,33.5c-1.8-0.7-1.8-0.7-2.8,0.8c-0.3,0.5-0.7,0.9-0.9,1.5c-0.2,0.6-0.5,0.8-1.1,0.5c-0.7-0.3-1.4-0.5-2.2-0.8
			c1.3-0.5,1.8-1.6,2.5-2.6c1-1.5,2.1-3,3.1-4.4c0.2-0.1,0.4-0.1,0.5,0.1c0.3,0.7,0.9,0.7,1.5,0.7c1.4,0,1.4,0,1.4,1.4
			c0,0.8-0.1,1.5,0.3,2.2c0.1,0.2,0.1,0.5,0,0.7c0,0.6-0.1,1.3-0.2,1.9c-0.1,0.1,0,0.3-0.2,0.4c-0.5-0.2,0-0.8-0.4-1
			c-0.4-0.1-0.8,0.1-1.2-0.2C136,34.3,136.3,33.8,136.1,33.5z"/>
		<path d="M98,30.2c-0.6-2.4-0.5-5-1.5-7.4c0.8-0.1,1.6-0.2,2.4-0.4c0.3,0,0.5,0.1,0.7,0.2c1.1,0.9,2.2,1.9,3.3,2.8
			c0.6-0.1,0.9,0.2,0.9,0.8c0,0.4,0,0.8,0,1.1c0,1,0,1-0.9,0.6c-1.2-0.9-2.3-1.9-3.6-2.9c0.1,0.9,0.2,1.7,0.3,2.5
			c-0.3,0.4-0.5,0.8-0.5,1.4c0,0.6,0.1,1.3-0.9,0.9C98.2,30,98.1,30.2,98,30.2z"/>
		<path class="st12" d="M92.7,31.8C92.7,31.8,92.7,31.9,92.7,31.8c-1.6,0.6-1.6,0.6-1.4,2.2c0.1,0.6,0.1,1.3,0.2,1.9
			c0.2,0.6,0.1,0.9-0.6,1c-0.6,0-0.7-0.4-0.7-0.9c0-1.2,0-2.4,0-3.5c0-0.4,0-0.8-0.4-1c-0.3-0.3-0.3-0.7-0.3-1.1c0-0.6,0-1.1,0-1.7
			c0-0.2-0.1-0.3-0.3-0.3c-0.2,0-0.2,0.2-0.2,0.3c0,0.2-0.1,0.4-0.3,0.6c-0.2-0.6-0.1-1.2-0.1-1.8c0.3-0.5,0-1,0-1.5
			c0-0.5,0.1-0.7,0.6-0.7c0.9,0,1.7,0.1,2.5,0.3c0.5,0.6,0.9,1.3,1.2,1.9c0,0.3-0.1,0.5-0.2,0.8c-0.4,0.8-0.4,0.9-1.3,0.4
			c-0.1,0-0.1,0-0.2,0.1C91,29.3,91,29.8,91.7,30c0,0.1,0,0.2-0.1,0.3c-0.1,0.2-0.5,0.2-0.4,0.5c0.1,0.4,0.5,0.3,0.8,0.3
			c0.2,0,0.4,0,0.6,0.1c0.3,0.1,0.4,0.3,0,0.5C92.6,31.8,92.6,31.9,92.7,31.8C92.6,31.8,92.7,31.8,92.7,31.8z"/>
		<path class="st11" d="M92.7,31.8c-0.1,0-0.2,0-0.3,0c0-0.2,0.3,0,0.4-0.3c-0.4,0-0.7-0.1-1.1-0.1c-0.3,0-0.6,0.1-0.7-0.4
			c-0.1-0.4,0.1-0.5,0.4-0.7c0.1-0.1,0.2-0.2,0.3-0.3c-0.2-0.5-0.7-0.9-0.7-1.5c0.1-0.6,0.3-0.5,0.6-0.1c0.3,0.5,0.5,0.4,0.7-0.1
			c0.2-0.3,0.3-0.7,0.5-1c1.1,1.7,2.1,3.4,3.2,5.2c0.5,0.8,0.9,1.6,2.1,2.1c-1.1,0.3-1.9,0.6-2.8,0.9c-0.4,0.1-0.4-0.1-0.5-0.4
			c-0.4-1.1-1.2-2-1.7-3C93.1,31.9,92.9,31.8,92.7,31.8z"/>
		<path class="st11" d="M54,61.5c-1.1-0.7-2.2-1.3-3.3-2c-0.8-0.5-1.5-1.1-2.6-1.1c1-1.6,2-3.2,2.9-4.7c0.1-0.2,0.2-0.3,0.4-0.2
			c0.5,0.3,1,0.6,1.5,0.9c0.4,0.2,0.1,0.4-0.1,0.5c-0.6,0.6-0.9,1.3-1.4,2c-0.3,0.4-0.2,0.5,0.2,0.7c0.7,0.4,1.3,0.8,2,1.3
			c0.7,0.5,0.7,1.4,0.9,2.1C54.6,61.4,54.4,61.5,54,61.5z"/>
		<path class="st12" d="M77.9,31.3c1,1.5,1.9,3.1,2.8,4.6c0,0.6,0.2,1.2-0.7,1.4c-0.3,0.1,0.1,0.7-0.3,0.9c-0.3-0.1-0.3-0.7-0.6-0.6
			c-0.5,0.2-1,0.6-1.5,0.9c-0.1,0.1,0.1,0.3,0.2,0.5c0.1,0.3,0.3,0.5,0.4,0.8c-0.7,0.4-1.4,0.2-2.2,0.2c-0.7-1.1-1.4-2.2-2-3.3
			c0.2-0.4,0.3-0.7,0.4-1.1c0-0.4,0.3-0.8,0.7-1c0.4,0.7,0.9,1.4,1.3,2.1C76.9,37,77.5,37,78,37c0.4,0,0.4-0.7-0.1-1.1
			c0.1-0.1,0.1-0.3,0.1-0.5c0.5-0.3,0.2-0.9,0.5-1.4c-0.4,0.1-0.7,0-0.8-0.4C77.6,32.9,77.7,32.1,77.9,31.3z"/>
		<path class="st11" d="M71.9,26.4c3.7-2.2,7.6-4.2,11.6-5.7c0.5,0.3,0.7,0.9,0.6,1.3c-3.4,1.4-6.7,2.9-9.9,4.7
			c-0.6,0.1-1.1,0.5-1.8,0.2C72.2,26.8,71.9,26.8,71.9,26.4z"/>
		<path class="st12" d="M102.4,16c1.1-0.3,2.1-0.3,3.2-0.4c1.7-0.1,3.4-0.3,5.1-0.2c0.5,0.5,1.1,0.6,1.7,0.6
			c1.9-0.1,3.7,0.1,5.6-0.1c1-0.1,1,0.7,1.1,1.3c-3.1-0.2-6.1-0.4-9.2-0.3c-2.2,0.1-4.4,0.3-6.6,0.4C103,16.8,102.6,16.5,102.4,16z"
			/>
		<path class="st12" d="M138.3,33.6c-0.7-1.2-0.5-2.5-0.5-3.8c0-0.3-0.2-0.4-0.5-0.4c-0.3,0-0.7,0-1,0c-0.7,0.1-1.1,0-1.3-0.7
			c0-0.2-0.2-0.3-0.4-0.3c0.5-1,1.3-1.7,1.6-2.7c0.1-0.2,0.2-0.3,0.5-0.2c0.1,0,0.1,0.1,0.2,0.1c0.7,0.3,1.7,0.4,2.2,0.9
			c0.5,0.6-0.1,1.4-0.2,2.2C138.8,30.2,138.6,31.9,138.3,33.6z"/>
		<path class="st11" d="M167.6,60.1c-0.4,0.4-1.3,0.5-1.3,1c0,0.5,0.5,1,0.8,1.5c0.3,0.4,0.6,0.8,0.9,1.1c0,0,0,0.1-0.1,0.1
			c-0.6,0.4-1.2,1.1-1.8,1c-0.5-0.1-0.8-1-1.1-1.6c-0.7-1.1-1.3-2.1-2-3.3c1.5-0.1,2.4-1.1,3.6-1.7c0.4,0.1,0.6,0.4,0.8,0.7
			c0.2,0.2,0.3,0.7-0.2,0.8C167.4,59.9,167.6,59.9,167.6,60.1z"/>
		<path class="st11" d="M51.5,44c0.1-0.1,0.1-0.2,0.2-0.3c0.4-0.1,0.6-0.3,0.6-0.7c1.4-1.7,2.9-3.3,4.4-4.8c0.5,0.2,1.2-0.1,1.3,0.7
			c-2.5,2.5-4.8,5.2-7.1,7.9c-0.4,0-0.4-0.3-0.3-0.5c0.1-0.5-0.2-0.5-0.5-0.7c0.3-0.4,0.6-0.8,0.9-1.1C51.3,44.4,51.4,44.2,51.5,44z
			"/>
		<path class="st14" d="M102.9,28c0.2,0,0.5,0,0.7,0.1c0-0.5,0-0.9,0-1.4c0-0.6,0.1-1.1-0.7-1.3c0.4-0.1,0.2-0.3,0.2-0.5
			c-0.2-0.9-0.1-1.9-0.7-2.7c-0.2-0.2-0.1-0.4,0.2-0.5c0.1,0,0.1,0,0.2,0c0.7-0.1,1.5-0.5,2-0.2c0.6,0.3,0,1.1,0.1,1.7
			c0.3,1.7,0.5,3.4,0.8,5.1c-0.2,0.1-0.4-0.1-0.6-0.1c-0.5,0-0.9,0.1-0.9,0.7c0,0.2,0,0.5-0.3,0.6C103.8,28.9,103.3,28.5,102.9,28z"
			/>
		<path class="st11" d="M66.2,48.9c0.9,0.8,0.9,0.8,1.8-0.1c0.4-0.4,0.8-0.8,1.1-1.2c0.2-0.4,0.3-0.3,0.6-0.1
			c0.4,0.4,0.9,0.8,1.2,1.1c-1.4,1.5-2.8,2.9-4.2,4.4c-0.3-1.2-1.4-1.8-2-2.7c-0.1-0.1-0.1-0.3-0.1-0.3
			C65.3,49.8,65.6,49.2,66.2,48.9z"/>
		<path class="st14" d="M162.2,44.7c-0.4-0.2-0.6-0.3-0.7,0.3c0,0.2-0.2,0.4-0.4,0.4c-0.1,0-0.2-0.2-0.2-0.3c0-0.9-0.6-0.8-1.2-0.6
			c-0.1-0.3,0.1-0.4,0.3-0.6c0.7-0.9,0.7-1.1-0.1-1.9c-0.1-0.1-0.1-0.2-0.2-0.2c-0.1-0.3-0.2-0.7-0.2-1c0.1-0.7-0.2-1-0.9-0.8
			c0.3-0.4,0.6-0.9,0.8-1.5c1.1,1,2.1,1.9,3.1,2.9C163.5,42.3,163.3,43.7,162.2,44.7z"/>
		<path class="st11" d="M102.4,16c0.1,0,0.4,0,0.4,0.1c0.1,0.3,0.1,0.7,0.6,0.8c0.1,0-0.1,0.2-0.2,0.4c-2.7,0.4-5.4,0.8-8,1.4
			c-0.6-0.4-1.2-0.5-1.9-0.5c-0.3,0-0.3-0.2-0.1-0.5C96.2,16.9,99.2,16.3,102.4,16z"/>
		<path class="st11" d="M123.7,29.6c-0.2,1-0.4,1.9-0.5,2.9c0,0.2-0.1,0.4-0.1,0.6c0,1,0,1-1,0.8c-0.5-0.1-1.1-0.2-1.6-0.4
			c1.1-1.8,1-3.9,1.6-5.9c0.4-0.1,0.7-0.7,1.2-0.4c0.5,0.3,0.5,0.9,0.5,1.5C123.7,29,123.7,29.3,123.7,29.6z"/>
		<path class="st11" d="M88.7,29.2c0-0.5,0.1-0.9,0.1-1.4c0.7,0.1,1,0.4,0.9,1.1c-0.1,0.5,0,1,0,1.6c0,0.3-0.1,0.7,0.4,0.8
			c0.3,0.1,0.2,0.4,0.2,0.6c0,1.3,0,2.6,0,3.9c0,0.5,0.1,0.8,0.5,1c-0.7,0.2-1.4,0.5-2.1,0.7c0.8-2.1,0.1-4.2,0.1-6.2
			C88.8,30.7,88.8,29.9,88.7,29.2z"/>
		<path class="st12" d="M50.2,45.6c0.5-0.1,1-0.1,0.7,0.7c-0.1,0.2,0,0.4,0.2,0.5c-1.4,2-2.8,4.1-4.3,6.1c-0.6,0.1-0.7-0.7-1.2-0.7
			C46.9,49.9,48.5,47.7,50.2,45.6z"/>
		<path class="st11" d="M103.9,29.6c0-0.2,0.1-0.3,0.1-0.5c-0.1-0.4-0.1-0.8,0.3-1c0.5-0.2,1-0.3,1.4,0.2c0.2,0.9,0.3,1.8,0.5,2.7
			c0.1,0.7,0.2,1.5,0.7,2.1c-0.9,0.3-1.8,0.3-2.8,0.5C104.5,32.3,103.9,31,103.9,29.6z"/>
		<path class="st14" d="M123.7,29.6c-0.2-0.6,0-1.3-0.3-1.9c-0.2-0.4-0.6-0.5-0.7-0.1c-0.2,0.5-0.4,0-0.6,0.1c0.1-1,0.3-1.9,0.6-2.9
			c0.4-0.1,0.4-0.5,0.4-0.9c0-0.5,0.3-0.7,0.8-0.8c0.7,0,1.4-0.1,1.9,0.6c0.3,0.3,0.7,0.6,1.1,0.8c0.2,0.2,0.4,0.5,0.5,0.8
			c-0.7,0.3-1.2-0.2-1.8-0.3c0,0-0.1,0-0.1-0.1c0,0.1,0,0.1,0.1,0c0,0,0,0,0.1,0c0,0.3-0.3,0.3-0.4,0.5c-0.1-0.1-0.2-0.3-0.4-0.5
			C124.3,26.7,124,28.1,123.7,29.6z"/>
		<path class="st11" d="M63.2,48.8c-1.2-1.1-2.3-2.3-3.5-3.5c0.9,0,1.6-0.7,2.5-0.3c0,0,0.1,0.1,0.1,0.1c0.2,0.7-0.5,0.8-0.9,1.1
			c0.7,0.4,1.3-0.3,1.9-0.1c0.7,0.7,1.1,0.1,1.3-0.4c0.4-0.7,0.7-0.7,1.2-0.1c0.3,0.4,0.8,0.7,1.3,1.1c-0.5,0.3-0.8,0.5-1.2,0.7
			c-0.6,0.7-1.5,0.4-2.3,0.6c-0.1,0.3,0.1,0.3,0.2,0.3c0.3,0.2,0.2,0.5,0.1,0.6C63.6,49.3,63.5,48.8,63.2,48.8z"/>
		<path class="st12" d="M60.8,50.4c-0.1,0-0.4,0-0.4,0c-0.3,1-1.2,0.4-1.8,0.8c-0.4,0.2-0.5-0.1-0.7-0.3c-1.1-0.8-1.4-0.8-2.2,0.3
			c-0.2,0.1-0.2,0.6-0.6,0.5c-0.4-0.1-0.2-0.5-0.2-0.8c-0.1-0.7,0.1-1.4-0.1-2.1c0.3-0.5,0.7-0.8,1.3-1c0.2,0.2,0.3,0.2,0.5,0.1
			c0.3-0.1,0.6,0.1,0.6,0.4c0,0.5,0.3,0.6,0.7,0.5c0.7-0.2,1.2,0.4,1.9,0.5C60,49.7,60.5,50,60.8,50.4z"/>
		<path class="st12" d="M71.9,26.4c0.5,0.4,1.1,0.5,1.7,0.3c0.2-0.1,0.4-0.3,0.6,0c-2.3,1.4-4.5,2.8-6.8,4.3c-0.6-0.4-0.4-1-0.3-1.5
			C68.7,28.4,70.3,27.4,71.9,26.4z"/>
		<path class="st11" d="M79.7,38.2c0-0.2,0-0.5,0-0.7c0-0.1-0.2-0.3,0-0.3c1,0.1,0.7-0.8,1-1.3c0.4,0.6,0.8,1.3,1.2,1.9
			c0.5,0.8,0.9,1.7,1.8,2.2c-0.9,0.5-1.6,1-2.5,1.5C81.1,40.2,80.1,39.3,79.7,38.2z"/>
		<path class="st12" d="M54,61.5c0.2-0.1,0.5-0.2,0.3-0.6c-0.2-0.6-0.3-1.3-0.7-2c0.6,0.4,0.6-0.2,0.9-0.5c0.3-0.4,0.2-1.1,0.7-1.1
			c0.4,0,0.8,0.5,1.3,0.7c0.1,0.1,0.2,0.1,0.3,0.2c0.5,0.2,0.5,0.4,0.1,0.7c-0.3,0.3-0.6,0.7-0.8,1c-0.2,0.2-0.1,0.4,0.1,0.6
			c-0.5,0.5-0.2,1.4-1,1.7C54.7,62,54.3,61.7,54,61.5z"/>
		<path class="st6" d="M77.9,31.3c0.1,0.7,0,1.4,0,2.1c0,0.7,0.3,0.7,0.8,0.3c-0.4,0.5,0.4,1.4-0.6,1.7c-0.4-0.7-0.9-1.4-1.3-2.1
			c-0.5-0.7-0.8-1.5-1.7-2c0.7-0.5,1.4-0.8,2.1-1.3c0.4-0.3,0.5-0.1,0.6,0.3C77.6,30.6,77.8,31,77.9,31.3z"/>
		<path class="st6" d="M60.1,42.8c0.7-0.7,1.5-1.5,2.2-2.2c0.3-0.3,0.4-0.2,0.7,0c0.4,0.4,0.9,0.8,1.4,1.3c-1.2,0.5-1.8,1.4-2.6,2.1
			c-0.3,0.1-0.6,0.1-0.9,0.1C59.8,44,59.6,43.8,60.1,42.8z"/>
		<path class="st6" d="M66.7,36.8c1.3-1,2.9-1,4.1,0.2c0.5,0.5,0.9,1,1.3,1.5c-0.5,0.4-1.1,0.9-1.8,1.4c-0.4-0.6-0.6-1.2-1.1-1.6
			c-0.5-0.7,0.5-0.3,0.5-0.7c-0.3-0.2-0.6-0.2-1-0.1c-0.7,0.1-1.3-0.2-1.9-0.4C66.6,37.1,66.6,36.9,66.7,36.8z"/>
		<path class="st6" d="M75.1,34.6c-0.2,0.5-0.6,1-0.5,1.7c0,0.3-0.3,0.3-0.5,0.5c-0.7-0.9-1.1-2.1-1.9-3c-0.1-0.3,0-0.5,0-0.8
			c0.5-0.3,1-0.6,1.5-0.9c0.2-0.1,0.4-0.2,0.4,0.1C74,33.1,74.7,33.8,75.1,34.6z"/>
		<path class="st6" d="M76,40.1c0.7-0.4,1.5-0.2,2.2-0.2c0.6,0.7,0.9,1.7,1.9,2.2c-0.9,0.5-1.7,1-2.6,1.5
			C77.5,42.2,76.5,41.3,76,40.1z"/>
		<path class="st21" d="M136.3,34.5c0.5,0.3,1,0.1,1.6,0.1c0,0.4-0.2,0.8,0,1.2c0.3,0.2-0.2,0.5,0,0.7c0,0.1,0,0.1,0,0.2
			c-0.1,0.6-0.2,1.1,0.1,1.6c0,0.1,0.2,0.3,0.1,0.4c0,0.1-0.2,0-0.4,0c-0.3-0.1-0.5-0.2-0.8-0.3c-1.6-0.6-1.6-0.6-1.2-2.3
			c0.2-0.3,0.3-0.6,0.1-1c0-0.1,0-0.1,0-0.2C136.2,34.9,135.9,34.4,136.3,34.5z"/>
		<path class="st6" d="M85.6,20c1.6-0.6,3.1-1.2,4.7-1.5c0.3-0.1,0.3,0.1,0.2,0.3c-0.1,0.4,0.1,0.7,0.3,1.1c-1.6,0.5-3.2,1-4.7,1.5
			c-0.5,0.1-0.3-0.4-0.5-0.6C85.5,20.6,85.5,20.2,85.6,20z"/>
		<path class="st6" d="M57.6,37.4c0.5-0.4,0.9-0.9,1.4-1.3c0.7,0.3,1.3,0,1.6-0.8c0.1-0.4,0.6-0.6,0.5-1.1c0.4-0.4,0.8-0.8,1.3-1.1
			c0.2-0.1,0.4-0.2,0.5,0c0.1,0.4,0.5,0.6,0.5,1c-1.5,1.4-3.1,2.7-4.6,4.1C58.2,38.1,58,37.6,57.6,37.4z"/>
		<path class="st11" d="M119,17.1c-0.1-0.2-0.4-0.1-0.4-0.4c0.1-0.8-0.4-0.7-0.9-0.6c-2.2,0.2-4.4,0.1-6.5,0.1
			c-0.5,0-0.3-0.6-0.5-0.8c3-0.1,5.9,0,8.9,0.3c-0.3,0.2,0,0.8,0.4,1c0.2,0.1,0.5,0.1,0.7,0.3c0,0,0.1,0.1,0.1,0.2
			c-0.2,0.2-0.5,0.1-0.7,0.1C119.6,17.2,119.3,17.2,119,17.1z"/>
		<path class="st14" d="M170.7,55.8c0.8-0.7,2-1,2.5-2.1c0.5,0.9,1,1.6,1.6,2.5c-1.2,0-2,0.8-2.9,1.3c-0.3-0.1-0.5-0.3-0.6-0.7
			c0-0.2,0-0.4-0.3-0.3C170.7,56.5,170.6,56.1,170.7,55.8z"/>
		<path class="st6" d="M155.8,45.8c0.1,0,0.1,0,0.2,0c-0.5,0.5-0.9,1-1.4,1.5c-0.5,0.5-0.9,1-1.1,1.8c-0.7-0.7-1.4-1.3-2.1-2
			c1.2-0.3,1.7-1.3,2.5-2c0.4,0,0.4,0,0.4,0.4c0,0.1,0.2,0.4,0.4,0.5C154.9,45.5,155.2,45.5,155.8,45.8z"/>
		<path class="st6" d="M55.1,62.1c0.2-0.3,0.5-0.5,0.4-0.9c-0.1-0.4,0.6-0.4,0.7-0.8c0.5,0.3,1.1,0.6,1.6,1c0.6,0.4,1.2,0.7,2.1,0.8
			c-0.5,0.8-0.9,1.5-1.3,2.2c-0.1,0.2-0.3,0.2-0.4,0c-0.2-0.3-0.4-0.5-0.6-0.8c0-0.1,0-0.1,0-0.2c0.4-1,0.4-1-0.7-1
			c-0.5,0-0.9,0-1.4-0.2C55.3,62.2,55.2,62.2,55.1,62.1z"/>
		<path class="st11" d="M170.7,55.8c0.3,0.6,0.9,1,1.2,1.7c-0.7,0.5-1.5,1-2.3,1.4c-0.5-0.1-0.9-0.3-1.4-0.4c-0.4,0-0.6-0.4-0.5-0.8
			C168.7,57,169.7,56.4,170.7,55.8z"/>
		<path class="st14" d="M66.7,36.8c0.8,0.4,1.7,0.5,2.6,0.5c0.3,0,0.7-0.2,0.7,0.4c0,0.5-0.4,0.4-0.7,0.3c-0.3,0-0.1,0.2-0.1,0.3
			c-1.2-0.1-1.7,0.4-1.6,1.6c-0.3,0.2-0.1,0.6-0.2,0.8c0,0.2,0,0.5-0.3,0.4c-0.3,0-0.3-0.2-0.3-0.5c0-0.8-0.1-1.6,0-2.3
			c0.2-0.8-0.2-0.8-0.7-0.9C66.1,37.2,66.4,37,66.7,36.8z"/>
		<path class="st6" d="M67.2,29.5c0.4,0.4,0,1,0.3,1.5c-0.8,0.7-1.6,1.3-2.4,1.8c-0.4,0.3-0.8,0.2-1.2,0c-0.3-0.2-0.3-0.4-0.2-0.7
			C64.8,31.2,65.9,30.3,67.2,29.5z"/>
		<path class="st2" d="M98,30.2c0.1-0.1,0.2-0.3,0.2-0.3c1.2,0.5,0.7-0.5,0.7-0.9c0-0.5,0-1.1,0.7-1.2c0.3,1.4,0.5,2.7,0.7,4.1
			c-0.1,0.2-0.1-0.2-0.3,0c-0.5,0.5-1.1,0.5-1.7,0.2C98.1,31.4,98,30.8,98,30.2z"/>
		<path class="st14" d="M158.4,52c0.1,0.4,0.4,0.4,0.7,0.4c0.6,0,1.3,0.1,1.9,0c0.5-0.1,0.5,0.2,0.6,0.5c-0.8,0.6-1.8,0.8-2.5,1.4
			c-0.3,0.3-0.4-0.1-0.6-0.2c-0.6-0.6-1-1.5-1.8-1.9c0,0,0,0,0,0C157.2,51.9,157.8,52.2,158.4,52z"/>
		<path class="st13" d="M98.3,32c0.6-0.1,1.5,0.4,1.7-0.7c0.2,0.2,0,0.4,0.3,0.5c0.2,0.8,0.3,1.7,0.8,2.4c-0.9,0.1-1.7,0.3-2.4,0.4
			c-0.2,0-0.5,0.1-0.4-0.3C98.6,33.5,98.3,32.8,98.3,32z"/>
		<path class="st13" d="M126.8,24.6c-0.7,0.1-1.1-0.4-1.4-0.8c-0.6-0.7-1.2-0.3-1.8-0.3c-0.5,0-0.3,0.4-0.3,0.7
			c0,0.4-0.3,0.7-0.5,0.9c-0.1,0.1-0.1-0.1-0.1-0.2c0-1,0.6-1.9,0.1-3c0.9,0.2,1.7,0.3,2.5,0.5c0.3,0.1,0.5,0.2,0.6,0.5
			C126.1,23.4,126.5,24,126.8,24.6z"/>
		<path class="st12" d="M108,24.9c0.5-0.3,1.1,0,1.7-0.3c-0.1,0.6-0.2,1,0,1.5c0.3,0.8-0.3,1.6-0.3,2.5c0,0.3-0.4,0.2-0.6,0.2
			c-0.6-0.1-0.7,0.2-0.7,0.8c0,0.9,0,1.7,0,2.6c-0.2-1.9-0.1-3.9-0.1-5.9c0.7,0.3,0.2,0.9,0.3,1.3c-0.1-0.6,0.8-1.5-0.3-2.1
			C108,25.2,108,25.1,108,24.9z"/>
		<path class="st13" d="M154.4,37.3c0.3-0.6,0.9-1.1,0.8-2.1c0.9,0.6,1.6,1.1,2.5,1.7c-1,0.4-1.4,1.3-2,2c-0.5-0.1-0.5-0.1-0.1-0.6
			C155.2,38,154.5,38,154.4,37.3z"/>
		<path class="st14" d="M63.2,48.8c0.1,0,0.3,0,0.4,0.1c0.2,0.2,0.2,0.1,0.3-0.1c0-0.1,0.1-0.3-0.2-0.2c-0.3,0.1-0.5,0-0.5-0.3
			c0-0.4,0.3-0.4,0.6-0.4c0.7,0,1.5,0.1,2.2-0.3c-0.9,0.6-0.2,1,0.2,1.5c-0.2,0-0.3,0.1-0.2,0.3c0.1,0.3-0.1,0.5-0.4,0.5
			c-0.2,0-0.5-0.1-0.4,0.4c0,0.1-0.2-0.1-0.3-0.1c-0.4-0.2-0.1,0.2-0.2,0.3C64.1,49.8,63.7,49.3,63.2,48.8z"/>
		<path class="st14" d="M166,50.9c0-0.2,0.1-0.4,0.3-0.1c0.1,0.1,0.2,0.4,0.3,0.1c0.3-0.5,0.7-0.4,1.1-0.4c0.7,0,1.3-0.1,1.9-0.3
			c-0.9,1.1-1.7,2.2-2.6,3.3c-0.1,0.1-0.2,0-0.2,0c0.1-0.8-0.4-1.4-0.9-2c0-0.1,0-0.1-0.1-0.2C165.8,51.1,165.9,51,166,50.9z"/>
		<path class="st14" d="M60.1,42.8c-0.2,0.7-0.1,1.2,0.9,1c0.3-0.1,0.5,0,0.8,0.2c-0.2,0.5,0.5,0.6,0.6,1c-0.5,0.2-1.1,0-1.6,0.5
			c-0.3,0.3-0.6-0.4-0.9-0.2c-0.4-0.4-0.9-0.5-1.4-0.8C58.9,43.9,59.4,43.3,60.1,42.8z"/>
		<path class="st13" d="M45.6,52.2c0.7-0.3,0.7,0.6,1.2,0.7c-0.4,0.8-0.8,1.5-1.3,2.1C45.3,55,45.2,54.8,45,55
			c-0.3,0.2-0.7,0.1-0.9-0.3C44.5,53.8,45,53,45.6,52.2z"/>
		<path class="st14" d="M165.8,55c0-0.2,0.1-0.4-0.1-0.6c-0.1,0.2-0.2,0.4-0.3,0.5c-0.1,0.1-0.3,0.2-0.4,0.2c-0.2,0-0.2-0.3-0.2-0.4
			c0-0.5,0.1-1-0.6-1.1c-0.1,0-0.4-0.3-0.3-0.5c0.2-0.6,0.5-1.1,0.7-1.6c0.3,0.3,0.6,0.4,0.9,0c0.1-0.1,0.2-0.2,0.4-0.2l0,0.1
			c0.1,0.5,0,1-0.6,1.1c-0.3,0.1-0.2,0.2-0.1,0.5c0.3,0.5,0.9,0.6,1.3,1C166.4,54.3,166.1,54.7,165.8,55z"/>
		<path class="st2" d="M162,56.5c0.1,0.3,0.2,0.7,0.7,0.6c0.7-0.2,0.9,0.3,1,0.8c-0.4,0.5-0.5,1.1-0.6,1.9c-0.7-0.8-1.2-1.5-1.8-2.2
			c-0.2-0.2-0.1-0.4,0.1-0.5C161.5,56.9,161.8,56.6,162,56.5z"/>
		<path class="st14" d="M167.8,57.6c0.2,0.5,0.6,0.8,1.2,0.7c0.4-0.1,0.4,0.4,0.7,0.5c-0.6,0.5-1.3,0.9-2,1.3
			c-0.1-0.1-0.2-0.1-0.3-0.2c0.5-0.8-0.6-1-0.7-1.6C167,58.1,167.3,57.8,167.8,57.6z"/>
		<path class="st11" d="M166.6,53.9c-0.8,0.1-1.2-0.6-1.7-0.9c-0.3-0.2-0.2-0.6,0.1-0.6c0.7-0.1,0.8-0.5,0.9-1
			c0.3,0.5,0.9,0.6,1,1.3c0,0.2-0.3,0.6,0.1,0.8C166.9,53.6,166.8,53.8,166.6,53.9z"/>
		<path class="st2" d="M60.4,57.5c0.4-0.5,1.5-0.7,2.2-0.5c0.2,0.1,0.4,0.1,0.6,0.1c-0.5,0.6-1,1.3-1.5,2
			C61.4,58.4,60.9,58,60.4,57.5z"/>
		<path class="st2" d="M146.9,32.5c0.7-0.5,1.6-0.7,2.8-0.6c0.1,0,0.3,0,0.4,0c-0.3,0.7-0.6,1.3-1,2
			C148.5,33.2,147.9,32.6,146.9,32.5z"/>
		<path class="st11" d="M91.7,25.4c-0.5,0.3-1-0.2-1.5,0c-0.2,0.1-0.5,0-0.8,0c-0.7-0.1-0.6,0.3-0.6,0.7c0,0.4,0.4,1-0.2,1.3
			c0-0.3-0.1-0.6-0.1-0.9c-0.2-1.3-0.2-1.3,1.2-1.8c0.1,0,0.3-0.1,0.4-0.1C91.2,24.2,91.2,24.2,91.7,25.4z"/>
		<path class="st14" d="M85.6,20c0.3,0.4,0,1,0.5,1.3c-0.6,0.3-1.3,0.6-2,0.8c0.1-0.5-0.5-0.8-0.6-1.3C84.2,20.4,84.9,20.2,85.6,20z
			"/>
		<path class="st2" d="M154.4,37.3c0.3,0.5,0.8,0.7,1.3,0.8c0.1,0.3-0.7,0.6,0,0.8c-0.2,0.4-0.5,0.8-0.8,1.1c-0.5-0.2-0.8-0.4-0.7-1
			c0.1-0.4-0.1-0.8-0.3-1.1C154.1,37.7,154.2,37.4,154.4,37.3z"/>
		<path class="st13" d="M59.6,49.4c0,0.4-0.4,0.3-0.5,0.2c-0.4-0.7-1-0.4-1.6-0.5c-0.5,0-0.9,0-0.7-0.7c0.1-0.4-0.1-0.4-0.4-0.3
			c-0.3,0.2-0.5,0.1-0.5-0.3c1-0.3,1.8,0,2.6,0.7C58.9,48.8,59.3,49.1,59.6,49.4z"/>
		<path class="st3" d="M63.7,32.1c0.1,0.9,0.8,0.7,1.4,0.7c-0.5,0.5-1.1,0.9-1.7,1.3c-0.2-0.3-0.9-0.2-0.6-0.9
			c0.1-0.2-0.2-0.1-0.4-0.2C62.8,32.7,63.2,32.4,63.7,32.1z"/>
		<path class="st6" d="M78,35.9c0.3-0.1,0.6-0.4,0.6,0.2c0,1.2-0.1,1.3-1.3,1c-0.3-0.1-0.5,0.1-0.7,0.1c-0.2,0-0.4,0-0.4-0.2
			c0-0.1,0.1-0.2,0.2-0.3C76.9,36.5,77.4,36.2,78,35.9z"/>
		<path class="st3" d="M93.2,17.7c0.1,0.5,0.6,0.3,0.9,0.3c0.3,0,0.5-0.1,0.8-0.2c0,0.3-0.1,0.7,0.3,0.8c-0.9,0.3-1.8,0.5-2.7,0.6
			c-0.2-0.2-0.2-0.4,0-0.5c0.4-0.3,0.3-0.7,0.3-1C92.9,17.7,93,17.7,93.2,17.7z"/>
		<path class="st7" d="M55.3,62.3c0.7,0,1.4,0,2,0c0.2,0,0.6-0.1,0.7,0.2c0.1,0.3-0.1,0.5-0.3,0.7c-0.1,0.1-0.2,0.3-0.3,0.4
			C56.7,63.2,56,62.8,55.3,62.3z"/>
		<path class="st2" d="M155.8,45.8c-0.4,0.1-0.9-0.3-0.9,0.5c0,0.1-0.2,0.2-0.3,0.2c-0.2,0-0.3-0.2-0.3-0.3c0.1-0.3-0.7-0.6,0-0.8
			c-0.2-0.1-0.3-0.2-0.5-0.2c0.2-0.3,0.5-0.6,0.8-0.9c-0.1,0.2-0.1,0.4-0.2,0.7c0.4-0.5,0.4-0.1,0.7,0.1
			C155.4,45.3,155.8,45.2,155.8,45.8z"/>
		<path class="st7" d="M63,54.9c0.7-0.8,1.5-0.5,2.3-0.4c-0.4,0.5-0.7,1-1.2,1.6C63.8,55.6,63.6,55,63,54.9z"/>
		<path class="st6" d="M92.8,17.8c0.2,0.4,0.5,0.9-0.2,1.2c-0.1,0-0.1,0.2-0.1,0.4c-0.2,0.2-0.4,0.2-0.7,0.2
			c-0.3-0.3-0.3-0.3,0.2-0.8c-0.4,0.1-0.7,0.2-1,0.2c-0.2,0-0.3,0-0.4-0.2c-0.1-0.2,0.1-0.3,0.2-0.4C91.5,18.1,92.2,17.9,92.8,17.8z
			"/>
		<path class="st7" d="M119.9,17.2c0.2,0,0.4,0,0.6,0c-0.2-0.3-0.5-0.2-0.7-0.2c-0.5,0-0.4-0.6-0.6-0.8c-0.3-0.4,0.3-0.2,0.2-0.4
			c0.5,0,0.9,0,1.3,0.1c-0.6,0.2-0.2,0.8-0.1,0.8c0.4,0.1,0.1,0.4,0.2,0.6C120.6,17.3,120.3,17.3,119.9,17.2z"/>
		<path class="st2" d="M152,36.8c-0.7-0.5-0.3-1.2-0.5-1.8c0,0-0.1-0.3,0.2-0.3c0.2,0,0.5-0.1,0.5,0.2c0.1,0.4,0.5,0.4,0.7,0.6
			C152.7,36,152.4,36.4,152,36.8z"/>
		<path class="st14" d="M90.9,18.3c0,0.1-0.3,0.5,0.1,0.4c0.4-0.1,0.9,0.1,1.2-0.4c0.2,0.4,0,0.5-0.2,0.7c-0.2,0.1-0.4,0.2-0.1,0.5
			c-0.3,0.2-0.7,0.3-1,0.3c-0.7-0.2-0.4-0.9-0.5-1.3C90.5,18.3,90.7,18.3,90.9,18.3z"/>
		<path class="st14" d="M63.4,46.1c-0.5,0.2-1,0.4-1.6,0.5c-0.2,0-0.5,0-0.5-0.4c0-0.3,0.1-0.5,0.4-0.4c0.5,0,0.5-0.4,0.7-0.7
			C62.8,45.4,63.1,45.7,63.4,46.1z"/>
		<path class="st3" d="M57.6,37.4c0.6-0.1,0.8,0.6,1.2,0.8c-0.2,0.2-0.4,0.4-0.7,0.6c-0.4-0.1-0.6-0.9-1.1-0.3
			c-0.1-0.1-0.2-0.3-0.2-0.4C57,37.9,57.2,37.6,57.6,37.4z"/>
		<path class="st21" d="M108,25.4c0.6-0.1,0.9,0.2,0.8,0.8c-0.1,0.7-0.4,1.3-0.5,2c-0.3-0.7,0.1-1.4-0.3-2C108,26,108,25.7,108,25.4
			z"/>
		<path class="st15" d="M61.4,55.8c0,0.4-0.2,0.3-0.4,0.2c-0.4-0.2-0.7-0.5-1.3-0.3c-0.3,0.1-0.4-0.3-0.2-0.5
			c0.1-0.2,0.4-0.3,0.6-0.4C60.6,55,61,55.4,61.4,55.8z"/>
		<path class="st15" d="M157.2,41.5c0.2,0.2,0.4,0.4,0.1,0.8c-0.4,0.5-0.5-0.1-0.7-0.1C156.7,41.9,156.9,41.7,157.2,41.5z"/>
		<path class="st18" d="M72.1,33c0.4,0.3,0,0.5,0,0.8c-0.2-0.1-0.4-0.3-0.6-0.4C71.7,33.2,71.9,33.1,72.1,33z"/>
		<path class="st2" d="M136.3,34.5c-0.1,0.2-0.2,0.3-0.3,0.5c0-0.5,0.1-1,0.1-1.5C136.7,33.7,136.2,34.2,136.3,34.5z"/>
		<path class="st2" d="M136,35.1c0.6,0.4,0.2,0.7-0.1,1C135.8,35.8,135.8,35.4,136,35.1z"/>
		<path class="st2" d="M138.1,38.2c-0.5-0.5-0.4-1.1-0.1-1.6C137.9,37.2,137.9,37.7,138.1,38.2z"/>
		<path class="st18" d="M126.9,33.1c0.1,0.3,0.5,0.8-0.3,0.9C126.7,33.7,126.8,33.4,126.9,33.1z"/>
		<path class="st18" d="M127.3,35c0.3-0.1,0.6,0,0.8,0.2C127.8,35.1,127.5,35.1,127.3,35z"/>
		<path class="st2" d="M138,36.4c-0.3-0.2,0.1-0.4,0-0.7c0.1-0.1,0.1-0.2,0.2-0.3C138.1,35.8,138.1,36.1,138,36.4z"/>
		<path class="st9" d="M160,33.5c0.1-0.1,0.1-0.1,0.2-0.2c0.2,0.2,0.3,0.4,0.3,0.6C160.3,33.8,160.1,33.7,160,33.5z"/>
		<path class="st9" d="M148.6,45.2c0.3-0.3,0.4-0.2,0.5,0.1C149,45.3,148.8,45.3,148.6,45.2z"/>
		<path class="st18" d="M126.4,34.3c0.1,0.2,0.1,0.3,0,0.5C126.1,34.7,126.1,34.7,126.4,34.3z"/>
		<path class="st22" d="M100.4,56.9c-0.1,0-0.1,0.1-0.2,0.1c-0.1-0.2-0.2-0.3-0.1-0.6C100.3,56.6,100.4,56.7,100.4,56.9z"/>
		<path class="st7" d="M61.1,34.2c0,0.2,0.3,0.2,0.2,0.4c-0.5,0.7-0.8,1.5-1.5,1.9c-0.4,0.2-0.5-0.3-0.8-0.4
			C59.6,35.4,60.3,34.8,61.1,34.2z"/>
		<path class="st15" d="M52.3,43c0,0.2,0.4,0.2,0.1,0.5c-0.2,0.2-0.4,0.5-0.7,0.2C51.9,43.5,52.1,43.2,52.3,43z"/>
		<path d="M161.4,32.8c-0.1,0.1-0.1,0.3-0.3,0.2c-0.2-0.1-0.2-0.4-0.2-0.6C161,32.6,161.3,32.5,161.4,32.8z"/>
		<path class="st15" d="M51.5,44c0,0.3,0.1,0.7-0.5,0.5C51.2,44.3,51.3,44.1,51.5,44z"/>
		<path class="st0" d="M103.5,68.7c0.1,0.7-0.2,0.9-0.8,0.9c-0.5,0-1,0-1.5,0c-1,0-1.1-0.2-0.7-1.2c0.3,0.4,0.7,0.4,1.2,0.4
			C102.2,68.7,102.9,68.7,103.5,68.7z"/>
		<path class="st23" d="M57.7,132.3c-0.6,0-0.9-0.4-1.2-0.9c-0.2-0.3,0.1-0.3,0.3-0.4c0.6-0.4,1.2-0.9,1.8-1.3
			c0.3-0.2,0.5-0.7,0.9-0.3c0.4,0.3,0.6,0.8,0.4,1.3C59.7,131.2,58.2,132.2,57.7,132.3z"/>
		<path class="st18" d="M71.3,140.2c0.2,0,0.3,0.2,0.4,0.4C71.4,140.6,71.2,140.5,71.3,140.2z"/>
		<path class="st24" d="M141.1,152.7c0.2,0.3,0.4,0.6,0.6,0.9c-0.8,0.4-0.8,0.4-1-0.6c-0.1-0.2-0.1-0.4,0.2-0.4
			C141,152.7,141,152.7,141.1,152.7z"/>
		<path class="st25" d="M141,152.7c-0.2,0.1-0.2,0.3-0.2,0.4c-0.1-0.2-0.2-0.5-0.1-0.7C140.7,152.3,140.9,152.5,141,152.7z"/>
		<path class="st26" d="M120.5,157.5c-0.1-0.7,0.1-1.3,0.8-1.5c0.6-0.1,1,0.1,1.3,0.7c0.1,0.2,0.1,0.5,0.2,0.8
			c0.5,1.2,0.7,2.5,0.5,3.8c0,0.8,0.3,1.5,0.1,2.3c-0.4,0.4-0.8,0.7-1.4,0.5c-0.5-0.2-0.7-0.7-0.7-1.2
			C121.1,161,120.8,159.2,120.5,157.5z"/>
		<path class="st27" d="M63.7,139.1c-0.2,0-0.3,0-0.5,0.1c-1.2-0.5-1.3-0.7-0.5-1.6c0.4-0.4,0.8-0.8,1.3-1.1
			c0.2-0.2,0.4-0.6,0.7-0.4c0.4,0.2,0.7,0.5,0.7,1c0,0.2-0.1,0.4-0.1,0.6C64.8,138.2,64.2,138.7,63.7,139.1z"/>
		<path class="st13" d="M123.3,161.2c-0.2-1.3-0.4-2.5-0.5-3.8c0.2-0.1-0.1-0.4,0.1-0.6c0.2,0.1,0.4,0.2,0.4,0.5
			c0,0.1-0.1,0.3,0.1,0.3c0.4,0,0.7,0.1,0.6,0.6C123.9,159.4,124.3,160.5,123.3,161.2z"/>
		<path class="st23" d="M111.9,27.3c0,0.9,0,1.7,0,2.6c0,0.5-0.1,0.9-0.6,1.1c-0.8,0.4-1.1,0.1-1.2-0.7c0-2-0.1-4-0.1-6.1
			c0-0.3-0.4-0.9,0.5-1c0.8,0,1.3,0.3,1.3,1c0,0.8,0,1.5,0,2.3C111.8,26.9,111.8,27.1,111.9,27.3C111.9,27.3,111.9,27.3,111.9,27.3z
			"/>
		<path class="st23" d="M55.7,51.2c-0.2-0.6,0.3-0.8,0.6-1c0.4-0.3,0.8-0.2,1.1,0.1c0.4,0.3,0.8,0.6,1.2,0.9
			c0.1,0.2,0.2,0.3,0.3,0.5c0.2,0.6-0.1,1-0.5,1.4c-0.4,0.4-0.6-0.2-0.8-0.3C56.9,52.2,56.3,51.7,55.7,51.2z"/>
		<path class="st28" d="M165.9,51.2c-0.1,0.1-0.2,0.3-0.4,0.4c-0.2,0.2-0.2,0.5-0.5,0.4c-0.2-0.1-0.5-0.3-0.4-0.7
			c0.4-0.2,0.9-0.3,1.3-0.5C166,51,165.9,51.1,165.9,51.2z"/>
		<path class="st27" d="M159.7,41.7c1,0.3,1.4,1.1,0.7,1.9c-0.2,0.3-0.5,0.6-0.7,0.9c-0.2,0.1-0.4,0.3-0.6,0.4
			c-0.6,0.3-1.1-0.1-1.4-0.5c-0.3-0.4,0.2-0.5,0.4-0.8C158.6,43,159.1,42.3,159.7,41.7z"/>
		<path class="st29" d="M136.6,29.7c0,0.4-0.1,0.7-0.1,1.1c0,0.2,0,0.4-0.2,0.4c-0.2,0-0.4-0.1-0.6-0.2c-0.3-0.2,0-0.3,0.1-0.5
			c0.2-0.3,0.4-0.6,0.6-0.9C136.5,29.7,136.5,29.7,136.6,29.7z"/>
		<path class="st30" d="M91,28.5c0.1,0.5,0.8,0.8,0.7,1.5c-0.6,0.2-0.9,0.1-0.8-0.6C91,29.2,90.7,28.8,91,28.5z"/>
		<path d="M125.5,25.1c-0.3,0.2-0.5,0.2-0.6-0.2C125.2,24.8,125.3,24.9,125.5,25.1L125.5,25.1z"/>
	</g>
	<g>
		<g>
			<path class="st0" d="M23.5,82.7h13.3l-0.6,4.4h-8.9l-0.6,4.4H35l-0.6,4.4h-8.2l-1.1,8.5h-4.4L23.5,82.7z"/>
			<path class="st0" d="M37.4,93.5c0.2-1.7,0.7-3.3,1.4-4.7c0.7-1.4,1.6-2.6,2.7-3.6c1.1-1,2.3-1.8,3.7-2.3c1.4-0.5,2.8-0.8,4.4-0.8
				c1.5,0,2.9,0.3,4.2,0.8c1.2,0.5,2.3,1.3,3.1,2.3c0.8,1,1.4,2.2,1.8,3.6c0.4,1.4,0.4,3,0.2,4.7c-0.2,1.7-0.7,3.3-1.4,4.7
				c-0.7,1.4-1.6,2.6-2.7,3.6c-1.1,1-2.3,1.8-3.7,2.3c-1.4,0.5-2.8,0.8-4.4,0.8c-1.5,0-2.9-0.3-4.2-0.8c-1.2-0.5-2.3-1.3-3.1-2.3
				c-0.8-1-1.4-2.2-1.8-3.6C37.3,96.8,37.2,95.3,37.4,93.5z M42,93.5c-0.1,1-0.1,2,0.1,2.8c0.2,0.8,0.5,1.6,1,2.2
				c0.5,0.6,1,1.1,1.7,1.5c0.7,0.3,1.5,0.5,2.5,0.5c0.9,0,1.8-0.2,2.6-0.5c0.8-0.3,1.5-0.8,2.1-1.5c0.6-0.6,1.1-1.4,1.5-2.2
				c0.4-0.8,0.7-1.8,0.8-2.8c0.1-1,0.1-1.9-0.1-2.8c-0.2-0.9-0.5-1.6-1-2.2c-0.5-0.6-1.1-1.1-1.8-1.5c-0.7-0.3-1.5-0.5-2.5-0.5
				c-0.9,0-1.8,0.2-2.6,0.5c-0.8,0.3-1.5,0.8-2.1,1.5c-0.6,0.6-1.1,1.4-1.5,2.2C42.4,91.6,42.1,92.5,42,93.5z"/>
			<path class="st0" d="M60.7,93.5c0.2-1.7,0.7-3.3,1.4-4.7c0.7-1.4,1.6-2.6,2.7-3.6c1.1-1,2.3-1.8,3.7-2.3c1.4-0.5,2.8-0.8,4.4-0.8
				c1.5,0,2.9,0.3,4.2,0.8c1.2,0.5,2.3,1.3,3.1,2.3c0.8,1,1.4,2.2,1.8,3.6c0.4,1.4,0.4,3,0.2,4.7c-0.2,1.7-0.7,3.3-1.4,4.7
				c-0.7,1.4-1.6,2.6-2.7,3.6c-1.1,1-2.3,1.8-3.7,2.3c-1.4,0.5-2.8,0.8-4.4,0.8c-1.5,0-2.9-0.3-4.2-0.8c-1.2-0.5-2.3-1.3-3.1-2.3
				c-0.8-1-1.4-2.2-1.8-3.6C60.5,96.8,60.5,95.3,60.7,93.5z M65.2,93.5c-0.1,1-0.1,2,0.1,2.8c0.2,0.8,0.5,1.6,1,2.2
				c0.5,0.6,1,1.1,1.7,1.5c0.7,0.3,1.5,0.5,2.5,0.5c0.9,0,1.8-0.2,2.6-0.5c0.8-0.3,1.5-0.8,2.1-1.5c0.6-0.6,1.1-1.4,1.5-2.2
				c0.4-0.8,0.7-1.8,0.8-2.8c0.1-1,0.1-1.9-0.1-2.8c-0.2-0.9-0.5-1.6-1-2.2c-0.5-0.6-1.1-1.1-1.8-1.5c-0.7-0.3-1.5-0.5-2.5-0.5
				c-0.9,0-1.8,0.2-2.6,0.5c-0.8,0.3-1.5,0.8-2.1,1.5c-0.6,0.6-1.1,1.4-1.5,2.2C65.6,91.6,65.3,92.5,65.2,93.5z"/>
			<path class="st0" d="M86.4,82.7h6.5c1.6,0,3.1,0.2,4.4,0.6c1.4,0.4,2.5,1,3.5,1.9c1,0.9,1.7,2,2.1,3.4c0.4,1.4,0.5,3.1,0.3,5.1
				c-0.2,1.8-0.7,3.3-1.5,4.6c-0.8,1.3-1.7,2.5-2.9,3.4c-1.1,0.9-2.4,1.6-3.8,2.1c-1.4,0.5-2.8,0.7-4.3,0.7h-7.1L86.4,82.7z
				 M88.5,100h2.3c1,0,2-0.1,2.8-0.3c0.9-0.2,1.7-0.6,2.4-1.1c0.7-0.5,1.3-1.2,1.7-2.1c0.5-0.8,0.8-1.9,0.9-3.1
				c0.1-1.1,0.1-2-0.2-2.8c-0.3-0.8-0.7-1.4-1.2-1.9c-0.6-0.5-1.2-0.9-2-1.1c-0.8-0.3-1.6-0.4-2.6-0.4h-2.6L88.5,100z"/>
		</g>
		<g>
			<g>
				<path class="st31" d="M124.9,88c-0.3-0.5-0.7-0.9-1.3-1.1c-0.6-0.2-1.1-0.4-1.7-0.4c-0.3,0-0.7,0-1,0.1c-0.4,0.1-0.7,0.2-1,0.4
					c-0.3,0.2-0.6,0.4-0.8,0.7c-0.2,0.3-0.4,0.6-0.4,1c-0.1,0.5,0,0.9,0.2,1.2c0.2,0.3,0.5,0.6,0.9,0.8c0.4,0.2,0.9,0.4,1.4,0.6
					c0.5,0.2,1.1,0.3,1.6,0.6c0.5,0.2,1.1,0.4,1.6,0.7c0.5,0.3,1,0.6,1.3,1.1c0.4,0.4,0.6,1,0.8,1.7c0.2,0.7,0.2,1.5,0.1,2.4
					c-0.1,1.2-0.5,2.3-1,3.2c-0.5,0.9-1.2,1.6-2,2.2c-0.8,0.6-1.6,1-2.6,1.3c-1,0.3-2,0.4-3,0.4c-1.3,0-2.4-0.2-3.5-0.6
					c-1-0.4-2-1.1-2.8-2.1l3.6-3.7c0.4,0.7,0.9,1.2,1.5,1.5c0.6,0.4,1.3,0.5,2,0.5c0.4,0,0.7,0,1.1-0.1c0.4-0.1,0.7-0.2,1-0.4
					c0.3-0.2,0.6-0.4,0.8-0.7c0.2-0.3,0.3-0.6,0.4-1c0.1-0.7-0.1-1.2-0.5-1.5c-0.4-0.4-1-0.7-1.6-1c-0.7-0.3-1.4-0.5-2.1-0.8
					s-1.5-0.6-2.1-1.1c-0.6-0.4-1.1-1-1.5-1.8c-0.4-0.7-0.5-1.7-0.3-2.9c0.1-1.2,0.5-2.2,1-3.1c0.5-0.9,1.2-1.6,2-2.2
					c0.8-0.6,1.6-1,2.6-1.3c0.9-0.3,1.9-0.4,2.9-0.4c1.1,0,2.2,0.2,3.2,0.5c1,0.3,1.9,0.9,2.6,1.7L124.9,88z"/>
				<path class="st31" d="M135.1,86.9h-5.6l0.5-4.2h15.6l-0.5,4.2h-5.6l-2.2,17.5h-4.4L135.1,86.9z"/>
				<path class="st31" d="M151.8,82.7h3.6l5.8,21.7h-4.9l-1.1-4.6h-7.7l-2.2,4.6h-4.8L151.8,82.7z M152.7,89l-3.3,6.7h4.8L152.7,89z
					"/>
				<path class="st31" d="M178.2,88.3c-0.4-0.6-0.8-1-1.4-1.3c-0.6-0.3-1.3-0.5-2.1-0.5c-0.8,0-1.6,0.2-2.3,0.5
					c-0.7,0.3-1.4,0.8-2,1.5c-0.6,0.6-1.1,1.4-1.5,2.2c-0.4,0.9-0.7,1.8-0.8,2.8c-0.1,1-0.1,2,0.1,2.8c0.2,0.8,0.5,1.6,0.9,2.2
					c0.4,0.6,0.9,1.1,1.6,1.5c0.6,0.3,1.4,0.5,2.1,0.5c0.9,0,1.7-0.2,2.5-0.6c0.7-0.4,1.4-1,1.9-1.7l3.2,3c-1,1.3-2.2,2.2-3.5,2.8
					c-1.4,0.6-2.7,0.9-4.1,0.9c-1.5,0-2.9-0.3-4.2-0.8c-1.2-0.5-2.3-1.3-3.1-2.3c-0.8-1-1.4-2.2-1.8-3.6c-0.4-1.4-0.4-3-0.2-4.7
					c0.2-1.7,0.7-3.3,1.4-4.7c0.7-1.4,1.6-2.6,2.7-3.6c1.1-1,2.3-1.8,3.7-2.3c1.4-0.5,2.8-0.8,4.4-0.8c0.6,0,1.1,0.1,1.7,0.2
					c0.6,0.1,1.2,0.3,1.7,0.5c0.6,0.2,1.1,0.6,1.6,1c0.5,0.4,0.9,0.9,1.2,1.5L178.2,88.3z"/>
				<path class="st31" d="M185.3,82.7h4.4l-1.1,9l8.8-9h5.7l-10.1,10.1l8.1,11.6h-6.1l-6.7-10.3l-1.3,10.3h-4.4L185.3,82.7z"/>
			</g>
		</g>
	</g>
</g>
</svg>
